<svg width="308" height="200" fill="none" xmlns="http://www.w3.org/2000/svg"><g clip-path="url(#a)"><path fill="url(#b)" d="M0 0h308v200H0z"/><g filter="url(#c)"><path d="M46.126 175.98c-1.35.849-3.126-.113-3.126-1.708V27.728c0-1.596 1.776-2.558 3.126-1.708 60.224 37.873 153.524 37.873 213.748 0 1.35-.85 3.126.112 3.126 1.708v146.544c0 1.595-1.776 2.557-3.126 1.708-60.224-37.874-153.524-37.874-213.748 0Z" fill="#FEF1FB"/></g><path d="M116.981 87.9c-.216 0-.444-.03-.684-.09-.54-.132-.924-.438-1.152-.918-.156-.312-.228-.594-.216-.846l.054-.576.036-.18c.024-.072.042-.144.054-.216-.084.048-.162.09-.234.126-.072.024-.15.048-.234.072a1.837 1.837 0 0 1-1.638-.198 1.758 1.758 0 0 1-.666-.882 1.807 1.807 0 0 1 .072-1.368c.204-.456.54-.768 1.008-.936.048-.012.156-.06.324-.144.168-.096.42-.27.756-.522.348-.252.798-.618 1.35-1.098.48-.42.888-.786 1.224-1.098l.522-.504c.228-.228.492-.384.792-.468.312-.084.624-.078.936.018.516.132.888.432 1.116.9.072.12.132.306.18.558.06.24.042.516-.054.828 0 .012-.006.024-.018.036-.012.012-.018.03-.018.054a.698.698 0 0 0-.036.09.2.2 0 0 1-.018.09 1.58 1.58 0 0 1-.108.27l-.126.342c-.048.12-.102.264-.162.432a4.882 4.882 0 0 1-.18.486l.072-.036a1.691 1.691 0 0 1 1.422-.306c.48.096.852.354 1.116.774.288.408.378.858.27 1.35a1.722 1.722 0 0 1-.774 1.152 24.74 24.74 0 0 0-.828.576c-.252.18-.51.372-.774.576-.3.228-.582.438-.846.63-.252.192-.51.36-.774.504a3.546 3.546 0 0 1-.54.252 4.228 4.228 0 0 1-.504.18c-.264.06-.504.09-.72.09Zm16.413-1.602c-.144 0-.306-.018-.486-.054-.552-.144-.972-.474-1.26-.99a1.821 1.821 0 0 1-1.044.09 1.764 1.764 0 0 1-.954-.576 1.71 1.71 0 0 1-.432-1.296c.024-.504.222-.918.594-1.242.132-.108.276-.234.432-.378.144-.156.3-.312.468-.468.288-.288.588-.582.9-.882a12.687 12.687 0 0 1 1.512-1.206c.192-.12.372-.222.54-.306.624-.3 1.236-.384 1.836-.252.684.192 1.158.63 1.422 1.314.168.48.162.984-.018 1.512l-.072.18a2.64 2.64 0 0 1-.09.198c.432.204.744.54.936 1.008.168.48.15.948-.054 1.404-.204.444-.546.75-1.026.918l-1.026.396c-.312.108-.576.198-.792.27-.12.048-.234.09-.342.126l-.234.09c-.12.024-.246.054-.378.09a1.638 1.638 0 0 1-.432.054Zm3.895 1.71c-.132 0-.258-.006-.378-.018-.108 0-.192-.006-.252-.018a2.482 2.482 0 0 1-.9-.468 1.92 1.92 0 0 1-.594-.756 1.719 1.719 0 0 1-.162-.45 2.839 2.839 0 0 1 .018-.99c-.108-.072-.222-.15-.342-.234a1.424 1.424 0 0 1-.27-.27c-.288-.384-.432-.792-.432-1.224 0-.288.066-.564.198-.828.12-.264.288-.492.504-.684l.342-.342c.156-.168.3-.336.432-.504l.36-.396.522-.558c.18-.192.348-.366.504-.522.192-.168.36-.312.504-.432.144-.12.27-.216.378-.288.624-.384 1.272-.504 1.944-.36.696.18 1.158.57 1.386 1.17l-.018-.018c.048.108.084.216.108.324.036.096.06.198.072.306.168-.18.318-.348.45-.504.132-.168.252-.318.36-.45l.252-.288a.282.282 0 0 0 .054-.072l.036-.054c.276-.324.6-.552.972-.684a1.899 1.899 0 0 1 1.152-.072c.264.072.504.204.72.396.228.192.414.414.558.666.168.384.24.714.216.99-.012.264-.03.444-.054.54-.012.048-.03.102-.054.162-.012.06-.024.114-.036.162l-.108.342-.018.054c.24.012.48.078.72.198.24.108.438.258.594.45a1.9 1.9 0 0 1 .342.63c.084.228.126.45.126.666 0 .6-.246 1.11-.738 1.53l-.09.09c-.252.216-.522.432-.81.648-.276.216-.57.42-.882.612-.708.42-1.404.63-2.088.63-.288 0-.576-.042-.864-.126a1.943 1.943 0 0 1-.612-.252 2.225 2.225 0 0 1-.468-.414l-.414.342a9.543 9.543 0 0 1-.45.306h.018c-.276.192-.54.354-.792.486a9.524 9.524 0 0 1-.72.342 2.559 2.559 0 0 1-.648.18 4.162 4.162 0 0 1-.648.054Zm14.548-1.35c-.168 0-.354-.03-.558-.09-.612-.144-1.032-.516-1.26-1.116-.192-.456-.186-.972.018-1.548.072-.204.18-.444.324-.72.024-.048.048-.102.072-.162.036-.06.072-.114.108-.162-.264.144-.534.3-.81.468-.264.156-.534.306-.81.45-.48.3-.948.576-1.404.828-.456.24-.876.444-1.26.612-.444.204-.9.216-1.368.036a1.688 1.688 0 0 1-.99-.954 1.698 1.698 0 0 1-.036-1.368c.18-.468.498-.798.954-.99.276-.132.618-.306 1.026-.522a55.08 55.08 0 0 0 1.278-.738c.528-.312 1.086-.63 1.674-.954a17.615 17.615 0 0 1 1.71-.864c.636-.312 1.23-.522 1.782-.63a5.24 5.24 0 0 1 1.08-.162c.336-.012.654.024.954.108.66.192 1.11.6 1.35 1.224.18.444.204.888.072 1.332-.12.432-.282.84-.486 1.224l.108-.036a1.73 1.73 0 0 0 .126-.036 1.658 1.658 0 0 1 1.35.072c.456.204.768.54.936 1.008.168.468.15.93-.054 1.386-.204.444-.546.75-1.026.918l-1.548.54c-.468.168-.882.312-1.242.432-.492.144-.9.252-1.224.324a4.52 4.52 0 0 1-.846.09Zm19.354 0c-.168 0-.354-.03-.558-.09-.612-.144-1.032-.516-1.26-1.116-.192-.456-.186-.972.018-1.548.072-.204.18-.444.324-.72.024-.048.048-.102.072-.162.036-.06.072-.114.108-.162-.264.144-.534.3-.81.468-.264.156-.534.306-.81.45-.48.3-.948.576-1.404.828-.456.24-.876.444-1.26.612-.444.204-.9.216-1.368.036a1.688 1.688 0 0 1-.99-.954 1.698 1.698 0 0 1-.036-1.368c.18-.468.498-.798.954-.99.276-.132.618-.306 1.026-.522a55.08 55.08 0 0 0 1.278-.738c.528-.312 1.086-.63 1.674-.954a17.615 17.615 0 0 1 1.71-.864c.636-.312 1.23-.522 1.782-.63a5.24 5.24 0 0 1 1.08-.162c.336-.012.654.024.954.108.66.192 1.11.6 1.35 1.224.18.444.204.888.072 1.332-.12.432-.282.84-.486 1.224l.108-.036a1.73 1.73 0 0 0 .126-.036 1.658 1.658 0 0 1 1.35.072c.456.204.768.54.936 1.008.168.468.15.93-.054 1.386-.204.444-.546.75-1.026.918l-1.548.54c-.468.168-.882.312-1.242.432-.492.144-.9.252-1.224.324a4.52 4.52 0 0 1-.846.09Zm8.421.18c-.444 0-.822-.132-1.134-.396a1.735 1.735 0 0 1-.594-.864 1.823 1.823 0 0 1-.018-1.044l.018-.036a1.73 1.73 0 0 0 .036-.126c-.66.396-1.26.696-1.8.9a1.75 1.75 0 0 1-1.368-.054 1.755 1.755 0 0 1-.936-1.008c-.18-.468-.162-.93.054-1.386a1.755 1.755 0 0 1 1.008-.936c.204-.072.546-.246 1.026-.522.492-.276 1.158-.75 1.998-1.422.504-.408.918-.762 1.242-1.062l.504-.468c.492-.468 1.068-.618 1.728-.45.492.132.864.42 1.116.864.192.336.276.678.252 1.026-.024.348-.09.75-.198 1.206-.012.12-.036.24-.072.36a6.815 6.815 0 0 0-.108.36c.384-.024.738.06 1.062.252.336.192.582.468.738.828.204.444.216.9.036 1.368-.18.456-.498.786-.954.99-.516.228-.984.45-1.404.666l-.99.522c-.24.132-.366.198-.378.198a1.8 1.8 0 0 1-.864.234Zm15.75 0c-.444 0-.822-.132-1.134-.396a1.735 1.735 0 0 1-.594-.864 1.823 1.823 0 0 1-.018-1.044l.018-.036a1.73 1.73 0 0 0 .036-.126c-.66.396-1.26.696-1.8.9a1.75 1.75 0 0 1-1.368-.054 1.755 1.755 0 0 1-.936-1.008c-.18-.468-.162-.93.054-1.386a1.755 1.755 0 0 1 1.008-.936c.204-.072.546-.246 1.026-.522.492-.276 1.158-.75 1.998-1.422.504-.408.918-.762 1.242-1.062l.504-.468c.492-.468 1.068-.618 1.728-.45.492.132.864.42 1.116.864.192.336.276.678.252 1.026-.024.348-.09.75-.198 1.206-.012.12-.036.24-.072.36a6.815 6.815 0 0 0-.108.36c.384-.024.738.06 1.062.252.336.192.582.468.738.828.204.444.216.9.036 1.368-.18.456-.498.786-.954.99-.516.228-.984.45-1.404.666l-.99.522c-.24.132-.366.198-.378.198a1.8 1.8 0 0 1-.864.234Zm6.996 0c-.444 0-.822-.132-1.134-.396a1.735 1.735 0 0 1-.594-.864 1.823 1.823 0 0 1-.018-1.044l.018-.036a1.73 1.73 0 0 0 .036-.126c-.66.396-1.26.696-1.8.9a1.75 1.75 0 0 1-1.368-.054 1.755 1.755 0 0 1-.936-1.008c-.18-.468-.162-.93.054-1.386a1.755 1.755 0 0 1 1.008-.936c.204-.072.546-.246 1.026-.522.492-.276 1.158-.75 1.998-1.422.504-.408.918-.762 1.242-1.062l.504-.468c.492-.468 1.068-.618 1.728-.45.492.132.864.42 1.116.864.192.336.276.678.252 1.026-.024.348-.09.75-.198 1.206-.012.12-.036.24-.072.36a6.815 6.815 0 0 0-.108.36c.384-.024.738.06 1.062.252.336.192.582.468.738.828.204.444.216.9.036 1.368-.18.456-.498.786-.954.99-.516.228-.984.45-1.404.666l-.99.522c-.24.132-.366.198-.378.198a1.8 1.8 0 0 1-.864.234Zm6.996 0c-.444 0-.822-.132-1.134-.396a1.735 1.735 0 0 1-.594-.864 1.823 1.823 0 0 1-.018-1.044l.018-.036a1.73 1.73 0 0 0 .036-.126c-.66.396-1.26.696-1.8.9a1.75 1.75 0 0 1-1.368-.054 1.755 1.755 0 0 1-.936-1.008c-.18-.468-.162-.93.054-1.386a1.755 1.755 0 0 1 1.008-.936c.204-.072.546-.246 1.026-.522.492-.276 1.158-.75 1.998-1.422.504-.408.918-.762 1.242-1.062l.504-.468c.492-.468 1.068-.618 1.728-.45.492.132.864.42 1.116.864.192.336.276.678.252 1.026-.024.348-.09.75-.198 1.206-.012.12-.036.24-.072.36a6.815 6.815 0 0 0-.108.36c.384-.024.738.06 1.062.252.336.192.582.468.738.828.204.444.216.9.036 1.368-.18.456-.498.786-.954.99-.516.228-.984.45-1.404.666l-.99.522c-.24.132-.366.198-.378.198a1.8 1.8 0 0 1-.864.234Zm5.863 1.062c-.216 0-.444-.03-.684-.09-.54-.132-.924-.438-1.152-.918-.156-.312-.228-.594-.216-.846l.054-.576.036-.18c.024-.072.042-.144.054-.216-.084.048-.162.09-.234.126-.072.024-.15.048-.234.072a1.837 1.837 0 0 1-1.638-.198 1.758 1.758 0 0 1-.666-.882 1.807 1.807 0 0 1 .072-1.368c.204-.456.54-.768 1.008-.936.048-.012.156-.06.324-.144.168-.096.42-.27.756-.522.348-.252.798-.618 1.35-1.098.48-.42.888-.786 1.224-1.098l.522-.504c.228-.228.492-.384.792-.468.312-.084.624-.078.936.018.516.132.888.432 1.116.9.072.12.132.306.18.558.06.24.042.516-.054.828 0 .012-.006.024-.018.036-.012.012-.018.03-.018.054a.698.698 0 0 0-.036.09.2.2 0 0 1-.018.09 1.58 1.58 0 0 1-.108.27l-.126.342c-.048.12-.102.264-.162.432a4.882 4.882 0 0 1-.18.486l.072-.036a1.691 1.691 0 0 1 1.422-.306c.48.096.852.354 1.116.774.288.408.378.858.27 1.35a1.722 1.722 0 0 1-.774 1.152 24.74 24.74 0 0 0-.828.576c-.252.18-.51.372-.774.576-.3.228-.582.438-.846.63-.252.192-.51.36-.774.504a3.546 3.546 0 0 1-.54.252 4.228 4.228 0 0 1-.504.18c-.264.06-.504.09-.72.09Zm-98.236 18c-.216 0-.444-.03-.684-.09-.54-.132-.924-.438-1.152-.918-.156-.312-.228-.594-.216-.846l.054-.576.036-.18c.024-.072.042-.144.054-.216-.084.048-.162.09-.234.126-.072.024-.15.048-.234.072a1.837 1.837 0 0 1-1.638-.198 1.758 1.758 0 0 1-.666-.882 1.807 1.807 0 0 1 .072-1.368c.204-.456.54-.768 1.008-.936.048-.012.156-.06.324-.144.168-.096.42-.27.756-.522.348-.252.798-.618 1.35-1.098.48-.42.888-.786 1.224-1.098l.522-.504c.228-.228.492-.384.792-.468.312-.084.624-.078.936.018.516.132.888.432 1.116.9.072.12.132.306.18.558.06.24.042.516-.054.828 0 .012-.006.024-.018.036-.012.012-.018.03-.018.054a.698.698 0 0 0-.036.09.2.2 0 0 1-.018.09 1.58 1.58 0 0 1-.108.27l-.126.342c-.048.12-.102.264-.162.432a4.914 4.914 0 0 1-.18.486l.072-.036a1.69 1.69 0 0 1 1.422-.306c.48.096.852.354 1.116.774.288.408.378.858.27 1.35a1.722 1.722 0 0 1-.774 1.152 24.74 24.74 0 0 0-.828.576c-.252.18-.51.372-.774.576-.3.228-.582.438-.846.63-.252.192-.51.36-.774.504a3.546 3.546 0 0 1-.54.252 4.228 4.228 0 0 1-.504.18c-.264.06-.504.09-.72.09Zm17.007 0c-.216 0-.444-.03-.684-.09-.54-.132-.924-.438-1.152-.918-.156-.312-.228-.594-.216-.846l.054-.576.036-.18c.024-.072.042-.144.054-.216-.084.048-.162.09-.234.126-.072.024-.15.048-.234.072a1.837 1.837 0 0 1-1.638-.198 1.758 1.758 0 0 1-.666-.882 1.807 1.807 0 0 1 .072-1.368c.204-.456.54-.768 1.008-.936.048-.012.156-.06.324-.144.168-.096.42-.27.756-.522.348-.252.798-.618 1.35-1.098.48-.42.888-.786 1.224-1.098l.522-.504c.228-.228.492-.384.792-.468.312-.084.624-.078.936.018.516.132.888.432 1.116.9.072.12.132.306.18.558.06.24.042.516-.054.828 0 .012-.006.024-.018.036-.012.012-.018.03-.018.054a.698.698 0 0 0-.036.09.2.2 0 0 1-.018.09 1.58 1.58 0 0 1-.108.27l-.126.342c-.048.12-.102.264-.162.432a4.914 4.914 0 0 1-.18.486l.072-.036a1.69 1.69 0 0 1 1.422-.306c.48.096.852.354 1.116.774.288.408.378.858.27 1.35a1.722 1.722 0 0 1-.774 1.152 24.74 24.74 0 0 0-.828.576c-.252.18-.51.372-.774.576-.3.228-.582.438-.846.63-.252.192-.51.36-.774.504a3.546 3.546 0 0 1-.54.252 4.228 4.228 0 0 1-.504.18c-.264.06-.504.09-.72.09Zm6.42-1.602c-.144 0-.306-.018-.486-.054-.552-.144-.972-.474-1.26-.99a1.821 1.821 0 0 1-1.044.09 1.764 1.764 0 0 1-.954-.576 1.71 1.71 0 0 1-.432-1.296c.024-.504.222-.918.594-1.242.132-.108.276-.234.432-.378.144-.156.3-.312.468-.468.288-.288.588-.582.9-.882a12.687 12.687 0 0 1 1.512-1.206c.192-.12.372-.222.54-.306.624-.3 1.236-.384 1.836-.252.684.192 1.158.63 1.422 1.314.168.48.162.984-.018 1.512l-.072.18a2.64 2.64 0 0 1-.09.198c.432.204.744.54.936 1.008.168.48.15.948-.054 1.404-.204.444-.546.75-1.026.918l-1.026.396c-.312.108-.576.198-.792.27-.12.048-.234.09-.342.126l-.234.09c-.12.024-.246.054-.378.09a1.638 1.638 0 0 1-.432.054Zm3.895 1.71c-.132 0-.258-.006-.378-.018-.108 0-.192-.006-.252-.018a2.482 2.482 0 0 1-.9-.468 1.92 1.92 0 0 1-.594-.756 1.719 1.719 0 0 1-.162-.45 2.839 2.839 0 0 1 .018-.99c-.108-.072-.222-.15-.342-.234a1.424 1.424 0 0 1-.27-.27c-.288-.384-.432-.792-.432-1.224 0-.288.066-.564.198-.828.12-.264.288-.492.504-.684l.342-.342c.156-.168.3-.336.432-.504l.36-.396.522-.558c.18-.192.348-.366.504-.522.192-.168.36-.312.504-.432.144-.12.27-.216.378-.288.624-.384 1.272-.504 1.944-.36.696.18 1.158.57 1.386 1.17l-.018-.018c.048.108.084.216.108.324.036.096.06.198.072.306.168-.18.318-.348.45-.504.132-.168.252-.318.36-.45l.252-.288a.282.282 0 0 0 .054-.072l.036-.054c.276-.324.6-.552.972-.684a1.899 1.899 0 0 1 1.152-.072c.264.072.504.204.72.396.228.192.414.414.558.666.168.384.24.714.216.99-.012.264-.03.444-.054.54-.012.048-.03.102-.054.162-.012.06-.024.114-.036.162l-.108.342-.018.054c.24.012.48.078.72.198.24.108.438.258.594.45a1.9 1.9 0 0 1 .342.63c.084.228.126.45.126.666 0 .6-.246 1.11-.738 1.53l-.09.09c-.252.216-.522.432-.81.648-.276.216-.57.42-.882.612-.708.42-1.404.63-2.088.63-.288 0-.576-.042-.864-.126a1.943 1.943 0 0 1-.612-.252 2.225 2.225 0 0 1-.468-.414l-.414.342a9.543 9.543 0 0 1-.45.306h.018c-.276.192-.54.354-.792.486a9.524 9.524 0 0 1-.72.342 2.559 2.559 0 0 1-.648.18 4.162 4.162 0 0 1-.648.054Zm14.548-1.35c-.168 0-.354-.03-.558-.09-.612-.144-1.032-.516-1.26-1.116-.192-.456-.186-.972.018-1.548.072-.204.18-.444.324-.72.024-.048.048-.102.072-.162.036-.06.072-.114.108-.162-.264.144-.534.3-.81.468-.264.156-.534.306-.81.45-.48.3-.948.576-1.404.828-.456.24-.876.444-1.26.612-.444.204-.9.216-1.368.036a1.688 1.688 0 0 1-.99-.954 1.698 1.698 0 0 1-.036-1.368c.18-.468.498-.798.954-.99.276-.132.618-.306 1.026-.522a55.08 55.08 0 0 0 1.278-.738c.528-.312 1.086-.63 1.674-.954a17.615 17.615 0 0 1 1.71-.864c.636-.312 1.23-.522 1.782-.63a5.24 5.24 0 0 1 1.08-.162c.336-.012.654.024.954.108.66.192 1.11.6 1.35 1.224.18.444.204.888.072 1.332-.12.432-.282.84-.486 1.224l.108-.036a1.73 1.73 0 0 0 .126-.036 1.658 1.658 0 0 1 1.35.072c.456.204.768.54.936 1.008.168.468.15.93-.054 1.386-.204.444-.546.75-1.026.918l-1.548.54c-.468.168-.882.312-1.242.432-.492.144-.9.252-1.224.324a4.52 4.52 0 0 1-.846.09Zm16.041 1.242c-.216 0-.444-.03-.684-.09-.54-.132-.924-.438-1.152-.918-.156-.312-.228-.594-.216-.846l.054-.576.036-.18c.024-.072.042-.144.054-.216-.084.048-.162.09-.234.126-.072.024-.15.048-.234.072a1.837 1.837 0 0 1-1.638-.198 1.758 1.758 0 0 1-.666-.882 1.807 1.807 0 0 1 .072-1.368c.204-.456.54-.768 1.008-.936.048-.012.156-.06.324-.144.168-.096.42-.27.756-.522.348-.252.798-.618 1.35-1.098.48-.42.888-.786 1.224-1.098l.522-.504c.228-.228.492-.384.792-.468.312-.084.624-.078.936.018.516.132.888.432 1.116.9.072.12.132.306.18.558.06.24.042.516-.054.828 0 .012-.006.024-.018.036-.012.012-.018.03-.018.054a.698.698 0 0 0-.036.09.2.2 0 0 1-.018.09 1.58 1.58 0 0 1-.108.27l-.126.342c-.048.12-.102.264-.162.432a4.914 4.914 0 0 1-.18.486l.072-.036a1.69 1.69 0 0 1 1.422-.306c.48.096.852.354 1.116.774.288.408.378.858.27 1.35a1.722 1.722 0 0 1-.774 1.152 24.74 24.74 0 0 0-.828.576c-.252.18-.51.372-.774.576-.3.228-.582.438-.846.63-.252.192-.51.36-.774.504a3.546 3.546 0 0 1-.54.252 4.228 4.228 0 0 1-.504.18c-.264.06-.504.09-.72.09Zm5.358.108c-.132 0-.258-.006-.378-.018-.108 0-.192-.006-.252-.018a2.482 2.482 0 0 1-.9-.468 1.92 1.92 0 0 1-.594-.756 1.719 1.719 0 0 1-.162-.45 2.839 2.839 0 0 1 .018-.99c-.108-.072-.222-.15-.342-.234a1.424 1.424 0 0 1-.27-.27c-.288-.384-.432-.792-.432-1.224 0-.288.066-.564.198-.828.12-.264.288-.492.504-.684l.342-.342c.156-.168.3-.336.432-.504l.36-.396.522-.558c.18-.192.348-.366.504-.522.192-.168.36-.312.504-.432.144-.12.27-.216.378-.288.624-.384 1.272-.504 1.944-.36.696.18 1.158.57 1.386 1.17l-.018-.018c.048.108.084.216.108.324.036.096.06.198.072.306.168-.18.318-.348.45-.504.132-.168.252-.318.36-.45l.252-.288a.282.282 0 0 0 .054-.072l.036-.054c.276-.324.6-.552.972-.684a1.899 1.899 0 0 1 1.152-.072c.264.072.504.204.72.396.228.192.414.414.558.666.168.384.24.714.216.99-.012.264-.03.444-.054.54-.012.048-.03.102-.054.162-.012.06-.024.114-.036.162l-.108.342-.018.054c.24.012.48.078.72.198.24.108.438.258.594.45a1.9 1.9 0 0 1 .342.63c.084.228.126.45.126.666 0 .6-.246 1.11-.738 1.53l-.09.09c-.252.216-.522.432-.81.648-.276.216-.57.42-.882.612-.708.42-1.404.63-2.088.63-.288 0-.576-.042-.864-.126a1.943 1.943 0 0 1-.612-.252 2.225 2.225 0 0 1-.468-.414l-.414.342a9.543 9.543 0 0 1-.45.306h.018c-.276.192-.54.354-.792.486a9.524 9.524 0 0 1-.72.342 2.559 2.559 0 0 1-.648.18 4.162 4.162 0 0 1-.648.054Zm18.334 0c-.132 0-.258-.006-.378-.018-.108 0-.192-.006-.252-.018a2.482 2.482 0 0 1-.9-.468 1.92 1.92 0 0 1-.594-.756 1.719 1.719 0 0 1-.162-.45 2.839 2.839 0 0 1 .018-.99c-.108-.072-.222-.15-.342-.234a1.424 1.424 0 0 1-.27-.27c-.288-.384-.432-.792-.432-1.224 0-.288.066-.564.198-.828.12-.264.288-.492.504-.684l.342-.342c.156-.168.3-.336.432-.504l.36-.396.522-.558c.18-.192.348-.366.504-.522.192-.168.36-.312.504-.432.144-.12.27-.216.378-.288.624-.384 1.272-.504 1.944-.36.696.18 1.158.57 1.386 1.17l-.018-.018c.048.108.084.216.108.324.036.096.06.198.072.306.168-.18.318-.348.45-.504.132-.168.252-.318.36-.45l.252-.288a.282.282 0 0 0 .054-.072l.036-.054c.276-.324.6-.552.972-.684a1.899 1.899 0 0 1 1.152-.072c.264.072.504.204.72.396.228.192.414.414.558.666.168.384.24.714.216.99-.012.264-.03.444-.054.54-.012.048-.03.102-.054.162-.012.06-.024.114-.036.162l-.108.342-.018.054c.24.012.48.078.72.198.24.108.438.258.594.45a1.9 1.9 0 0 1 .342.63c.084.228.126.45.126.666 0 .6-.246 1.11-.738 1.53l-.09.09c-.252.216-.522.432-.81.648-.276.216-.57.42-.882.612-.708.42-1.404.63-2.088.63-.288 0-.576-.042-.864-.126a1.943 1.943 0 0 1-.612-.252 2.225 2.225 0 0 1-.468-.414l-.414.342a9.543 9.543 0 0 1-.45.306h.018c-.276.192-.54.354-.792.486a9.524 9.524 0 0 1-.72.342 2.559 2.559 0 0 1-.648.18 4.162 4.162 0 0 1-.648.054Zm12.37-1.17c-.444 0-.822-.132-1.134-.396a1.735 1.735 0 0 1-.594-.864 1.823 1.823 0 0 1-.018-1.044l.018-.036a1.73 1.73 0 0 0 .036-.126c-.66.396-1.26.696-1.8.9a1.75 1.75 0 0 1-1.368-.054 1.755 1.755 0 0 1-.936-1.008c-.18-.468-.162-.93.054-1.386a1.756 1.756 0 0 1 1.008-.936c.204-.072.546-.246 1.026-.522.492-.276 1.158-.75 1.998-1.422.504-.408.918-.762 1.242-1.062l.504-.468c.492-.468 1.068-.618 1.728-.45.492.132.864.42 1.116.864.192.336.276.678.252 1.026-.024.348-.09.75-.198 1.206-.012.12-.036.24-.072.36a6.815 6.815 0 0 0-.108.36c.384-.024.738.06 1.062.252.336.192.582.468.738.828.204.444.216.9.036 1.368-.18.456-.498.786-.954.99-.516.228-.984.45-1.404.666l-.99.522c-.24.132-.366.198-.378.198a1.8 1.8 0 0 1-.864.234ZM116.981 123.9c-.216 0-.444-.03-.684-.09-.54-.132-.924-.438-1.152-.918-.156-.312-.228-.594-.216-.846l.054-.576.036-.18c.024-.072.042-.144.054-.216-.084.048-.162.09-.234.126-.072.024-.15.048-.234.072a1.837 1.837 0 0 1-1.638-.198 1.758 1.758 0 0 1-.666-.882 1.807 1.807 0 0 1 .072-1.368c.204-.456.54-.768 1.008-.936.048-.012.156-.06.324-.144.168-.096.42-.27.756-.522.348-.252.798-.618 1.35-1.098.48-.42.888-.786 1.224-1.098l.522-.504c.228-.228.492-.384.792-.468.312-.084.624-.078.936.018.516.132.888.432 1.116.9.072.12.132.306.18.558.06.24.042.516-.054.828 0 .012-.006.024-.018.036-.012.012-.018.03-.018.054a.698.698 0 0 0-.036.09.2.2 0 0 1-.018.09 1.58 1.58 0 0 1-.108.27l-.126.342c-.048.12-.102.264-.162.432a4.882 4.882 0 0 1-.18.486l.072-.036a1.691 1.691 0 0 1 1.422-.306c.48.096.852.354 1.116.774.288.408.378.858.27 1.35a1.722 1.722 0 0 1-.774 1.152 24.74 24.74 0 0 0-.828.576c-.252.18-.51.372-.774.576-.3.228-.582.438-.846.63-.252.192-.51.36-.774.504a3.546 3.546 0 0 1-.54.252 4.228 4.228 0 0 1-.504.18c-.264.06-.504.09-.72.09Zm15.351.108c-.132 0-.258-.006-.378-.018-.108 0-.192-.006-.252-.018a2.482 2.482 0 0 1-.9-.468 1.92 1.92 0 0 1-.594-.756 1.719 1.719 0 0 1-.162-.45 2.839 2.839 0 0 1 .018-.99c-.108-.072-.222-.15-.342-.234a1.424 1.424 0 0 1-.27-.27c-.288-.384-.432-.792-.432-1.224 0-.288.066-.564.198-.828.12-.264.288-.492.504-.684l.342-.342c.156-.168.3-.336.432-.504l.36-.396.522-.558c.18-.192.348-.366.504-.522.192-.168.36-.312.504-.432.144-.12.27-.216.378-.288.624-.384 1.272-.504 1.944-.36.696.18 1.158.57 1.386 1.17l-.018-.018c.048.108.084.216.108.324.036.096.06.198.072.306.168-.18.318-.348.45-.504.132-.168.252-.318.36-.45l.252-.288a.282.282 0 0 0 .054-.072l.036-.054c.276-.324.6-.552.972-.684a1.899 1.899 0 0 1 1.152-.072c.264.072.504.204.72.396.228.192.414.414.558.666.168.384.24.714.216.99-.012.264-.03.444-.054.54-.012.048-.03.102-.054.162-.012.06-.024.114-.036.162l-.108.342-.018.054c.24.012.48.078.72.198.24.108.438.258.594.45a1.9 1.9 0 0 1 .342.63c.084.228.126.45.126.666 0 .6-.246 1.11-.738 1.53l-.09.09c-.252.216-.522.432-.81.648-.276.216-.57.42-.882.612-.708.42-1.404.63-2.088.63-.288 0-.576-.042-.864-.126a1.943 1.943 0 0 1-.612-.252 2.225 2.225 0 0 1-.468-.414l-.414.342a9.543 9.543 0 0 1-.45.306h.018c-.276.192-.54.354-.792.486a9.524 9.524 0 0 1-.72.342 2.559 2.559 0 0 1-.648.18 4.162 4.162 0 0 1-.648.054Zm12.37-1.17c-.444 0-.822-.132-1.134-.396a1.735 1.735 0 0 1-.594-.864 1.823 1.823 0 0 1-.018-1.044l.018-.036a1.73 1.73 0 0 0 .036-.126c-.66.396-1.26.696-1.8.9a1.75 1.75 0 0 1-1.368-.054 1.755 1.755 0 0 1-.936-1.008c-.18-.468-.162-.93.054-1.386a1.755 1.755 0 0 1 1.008-.936c.204-.072.546-.246 1.026-.522.492-.276 1.158-.75 1.998-1.422.504-.408.918-.762 1.242-1.062l.504-.468c.492-.468 1.068-.618 1.728-.45.492.132.864.42 1.116.864.192.336.276.678.252 1.026-.024.348-.09.75-.198 1.206-.012.12-.036.24-.072.36a6.815 6.815 0 0 0-.108.36c.384-.024.738.06 1.062.252.336.192.582.468.738.828.204.444.216.9.036 1.368-.18.456-.498.786-.954.99-.516.228-.984.45-1.404.666l-.99.522c-.24.132-.366.198-.378.198a1.8 1.8 0 0 1-.864.234Zm4.206 1.17c-.132 0-.258-.006-.378-.018-.108 0-.192-.006-.252-.018a2.482 2.482 0 0 1-.9-.468 1.92 1.92 0 0 1-.594-.756 1.719 1.719 0 0 1-.162-.45 2.839 2.839 0 0 1 .018-.99c-.108-.072-.222-.15-.342-.234a1.424 1.424 0 0 1-.27-.27c-.288-.384-.432-.792-.432-1.224 0-.288.066-.564.198-.828.12-.264.288-.492.504-.684l.342-.342c.156-.168.3-.336.432-.504l.36-.396.522-.558c.18-.192.348-.366.504-.522.192-.168.36-.312.504-.432.144-.12.27-.216.378-.288.624-.384 1.272-.504 1.944-.36.696.18 1.158.57 1.386 1.17l-.018-.018c.048.108.084.216.108.324.036.096.06.198.072.306.168-.18.318-.348.45-.504.132-.168.252-.318.36-.45l.252-.288a.282.282 0 0 0 .054-.072l.036-.054c.276-.324.6-.552.972-.684a1.899 1.899 0 0 1 1.152-.072c.264.072.504.204.72.396.228.192.414.414.558.666.168.384.24.714.216.99-.012.264-.03.444-.054.54-.012.048-.03.102-.054.162-.012.06-.024.114-.036.162l-.108.342-.018.054c.24.012.48.078.72.198.24.108.438.258.594.45a1.9 1.9 0 0 1 .342.63c.084.228.126.45.126.666 0 .6-.246 1.11-.738 1.53l-.09.09c-.252.216-.522.432-.81.648-.276.216-.57.42-.882.612-.708.42-1.404.63-2.088.63-.288 0-.576-.042-.864-.126a1.943 1.943 0 0 1-.612-.252 2.225 2.225 0 0 1-.468-.414l-.414.342a9.543 9.543 0 0 1-.45.306h.018c-.276.192-.54.354-.792.486a9.524 9.524 0 0 1-.72.342 2.559 2.559 0 0 1-.648.18 4.162 4.162 0 0 1-.648.054Zm21.124-1.17c-.444 0-.822-.132-1.134-.396a1.735 1.735 0 0 1-.594-.864 1.823 1.823 0 0 1-.018-1.044l.018-.036a1.73 1.73 0 0 0 .036-.126c-.66.396-1.26.696-1.8.9a1.75 1.75 0 0 1-1.368-.054 1.755 1.755 0 0 1-.936-1.008c-.18-.468-.162-.93.054-1.386a1.755 1.755 0 0 1 1.008-.936c.204-.072.546-.246 1.026-.522.492-.276 1.158-.75 1.998-1.422.504-.408.918-.762 1.242-1.062l.504-.468c.492-.468 1.068-.618 1.728-.45.492.132.864.42 1.116.864.192.336.276.678.252 1.026-.024.348-.09.75-.198 1.206-.012.12-.036.24-.072.36a6.815 6.815 0 0 0-.108.36c.384-.024.738.06 1.062.252.336.192.582.468.738.828.204.444.216.9.036 1.368-.18.456-.498.786-.954.99-.516.228-.984.45-1.404.666l-.99.522c-.24.132-.366.198-.378.198a1.8 1.8 0 0 1-.864.234Zm5.862 1.062c-.216 0-.444-.03-.684-.09-.54-.132-.924-.438-1.152-.918-.156-.312-.228-.594-.216-.846l.054-.576.036-.18c.024-.072.042-.144.054-.216-.084.048-.162.09-.234.126-.072.024-.15.048-.234.072a1.837 1.837 0 0 1-1.638-.198 1.758 1.758 0 0 1-.666-.882 1.807 1.807 0 0 1 .072-1.368c.204-.456.54-.768 1.008-.936.048-.012.156-.06.324-.144.168-.096.42-.27.756-.522.348-.252.798-.618 1.35-1.098.48-.42.888-.786 1.224-1.098l.522-.504c.228-.228.492-.384.792-.468.312-.084.624-.078.936.018.516.132.888.432 1.116.9.072.12.132.306.18.558.06.24.042.516-.054.828 0 .012-.006.024-.018.036-.012.012-.018.03-.018.054a.698.698 0 0 0-.036.09.2.2 0 0 1-.018.09 1.58 1.58 0 0 1-.108.27l-.126.342c-.048.12-.102.264-.162.432a4.882 4.882 0 0 1-.18.486l.072-.036a1.691 1.691 0 0 1 1.422-.306c.48.096.852.354 1.116.774.288.408.378.858.27 1.35a1.722 1.722 0 0 1-.774 1.152 24.74 24.74 0 0 0-.828.576c-.252.18-.51.372-.774.576-.3.228-.582.438-.846.63-.252.192-.51.36-.774.504a3.546 3.546 0 0 1-.54.252 4.228 4.228 0 0 1-.504.18c-.264.06-.504.09-.72.09Zm10.326-1.242c-.168 0-.354-.03-.558-.09-.612-.144-1.032-.516-1.26-1.116-.192-.456-.186-.972.018-1.548.072-.204.18-.444.324-.72.024-.048.048-.102.072-.162.036-.06.072-.114.108-.162-.264.144-.534.3-.81.468-.264.156-.534.306-.81.45-.48.3-.948.576-1.404.828-.456.24-.876.444-1.26.612-.444.204-.9.216-1.368.036a1.688 1.688 0 0 1-.99-.954 1.698 1.698 0 0 1-.036-1.368c.18-.468.498-.798.954-.99.276-.132.618-.306 1.026-.522a55.08 55.08 0 0 0 1.278-.738c.528-.312 1.086-.63 1.674-.954a17.615 17.615 0 0 1 1.71-.864c.636-.312 1.23-.522 1.782-.63a5.24 5.24 0 0 1 1.08-.162c.336-.012.654.024.954.108.66.192 1.11.6 1.35 1.224.18.444.204.888.072 1.332-.12.432-.282.84-.486 1.224l.108-.036a1.73 1.73 0 0 0 .126-.036 1.658 1.658 0 0 1 1.35.072c.456.204.768.54.936 1.008.168.468.15.93-.054 1.386-.204.444-.546.75-1.026.918l-1.548.54c-.468.168-.882.312-1.242.432-.492.144-.9.252-1.224.324a4.52 4.52 0 0 1-.846.09Zm5.632 1.35c-.132 0-.258-.006-.378-.018-.108 0-.192-.006-.252-.018a2.482 2.482 0 0 1-.9-.468 1.92 1.92 0 0 1-.594-.756 1.719 1.719 0 0 1-.162-.45 2.839 2.839 0 0 1 .018-.99c-.108-.072-.222-.15-.342-.234a1.424 1.424 0 0 1-.27-.27c-.288-.384-.432-.792-.432-1.224 0-.288.066-.564.198-.828.12-.264.288-.492.504-.684l.342-.342c.156-.168.3-.336.432-.504l.36-.396.522-.558c.18-.192.348-.366.504-.522.192-.168.36-.312.504-.432.144-.12.27-.216.378-.288.624-.384 1.272-.504 1.944-.36.696.18 1.158.57 1.386 1.17l-.018-.018c.048.108.084.216.108.324.036.096.06.198.072.306.168-.18.318-.348.45-.504.132-.168.252-.318.36-.45l.252-.288a.282.282 0 0 0 .054-.072l.036-.054c.276-.324.6-.552.972-.684a1.899 1.899 0 0 1 1.152-.072c.264.072.504.204.72.396.228.192.414.414.558.666.168.384.24.714.216.99-.012.264-.03.444-.054.54-.012.048-.03.102-.054.162-.012.06-.024.114-.036.162l-.108.342-.018.054c.24.012.48.078.72.198.24.108.438.258.594.45a1.9 1.9 0 0 1 .342.63c.084.228.126.45.126.666 0 .6-.246 1.11-.738 1.53l-.09.09c-.252.216-.522.432-.81.648-.276.216-.57.42-.882.612-.708.42-1.404.63-2.088.63-.288 0-.576-.042-.864-.126a1.943 1.943 0 0 1-.612-.252 2.225 2.225 0 0 1-.468-.414l-.414.342a9.543 9.543 0 0 1-.45.306h.018c-.276.192-.54.354-.792.486a9.524 9.524 0 0 1-.72.342 2.559 2.559 0 0 1-.648.18 4.162 4.162 0 0 1-.648.054Z" fill="#F29CBE"/><path d="m76.944 81.669-2.365.881a.48.48 0 0 0 0 .9l2.365.882.884 2.356a.482.482 0 0 0 .903 0l.884-2.356 2.364-.882a.48.48 0 0 0 0-.9l-2.364-.881-.884-2.357a.482.482 0 0 0-.903 0l-.885 2.357Zm-11.828 22.047a3 3 0 0 0 0 4.244l2.17 2.163a3.024 3.024 0 0 0 4.258 0l23.912-23.841a3 3 0 0 0 0-4.244l-2.17-2.157a3.024 3.024 0 0 0-4.258 0l-23.912 23.835Zm27.5-19.553-6.585 6.563-1.462-1.456 6.585-6.563 1.462 1.456Zm-29.92 2.163a.723.723 0 0 0-.471.675c0 .3.188.569.47.675l3.544 1.325 1.329 3.532a.726.726 0 0 0 1.355 0L70.253 89l3.542-1.325a.723.723 0 0 0 .47-.675c0-.3-.187-.569-.47-.675L70.252 85l-1.33-3.532a.726.726 0 0 0-1.354 0L66.238 85l-3.543 1.325Zm22.074 16.002a.723.723 0 0 0-.47.675c0 .3.188.569.47.675l3.543 1.326 1.33 3.531a.725.725 0 0 0 1.355 0l1.329-3.531 3.543-1.326a.723.723 0 0 0 .47-.675c0-.3-.188-.569-.47-.675l-3.543-1.325-1.33-3.532a.726.726 0 0 0-.677-.469.726.726 0 0 0-.677.47l-1.33 3.531-3.543 1.325Z" fill="#F693CB"/></g><defs><linearGradient id="b" x1="0" y1="0" x2="308" y2="200" gradientUnits="userSpaceOnUse"><stop stop-color="#FFD7E2"/><stop offset="1" stop-color="#FFD7DB"/></linearGradient><clipPath id="a"><path fill="#fff" d="M0 0h308v200H0z"/></clipPath><filter id="c" x="35" y="19.704" width="236" height="166.592" filterUnits="userSpaceOnUse" color-interpolation-filters="sRGB"><feFlood flood-opacity="0" result="BackgroundImageFix"/><feColorMatrix in="SourceAlpha" values="0 0 0 0 0 0 0 0 0 0 0 0 0 0 0 0 0 0 127 0" result="hardAlpha"/><feOffset dy="2"/><feGaussianBlur stdDeviation="4"/><feComposite in2="hardAlpha" operator="out"/><feColorMatrix values="0 0 0 0 0 0 0 0 0 0 0 0 0 0 0 0 0 0 0.03 0"/><feBlend in2="BackgroundImageFix" result="effect1_dropShadow_711_3"/><feBlend in="SourceGraphic" in2="effect1_dropShadow_711_3" result="shape"/></filter></defs></svg>