<svg width="308" height="200" fill="none" xmlns="http://www.w3.org/2000/svg"><g clip-path="url(#a)"><path fill="url(#b)" d="M0 0h308v200H0z"/><g filter="url(#c)"><path d="M-2.013 41.584S135.227 26 186.16 26c42.907 0 77.69 33.579 77.69 75s-34.783 75-77.69 75c-50.933 0-188.173-15.584-188.173-15.584V41.584Z" fill="#E9D8FD"/></g><g filter="url(#d)"><rect x="79" y="54" width="151" height="92" rx="4" fill="#FAF5FF"/></g><path d="M99.596 100.532c-.096 0-.204-.012-.324-.036a1.31 1.31 0 0 1-.84-.66 1.214 1.214 0 0 1-.696.06 1.176 1.176 0 0 1-.636-.384 1.14 1.14 0 0 1-.288-.864c.016-.336.148-.612.396-.828.088-.072.184-.156.288-.252.096-.104.2-.208.312-.312.192-.192.392-.388.6-.588a8.458 8.458 0 0 1 1.008-.804c.128-.08.248-.148.36-.204.416-.2.824-.256 1.224-.168.456.128.772.42.948.876a1.505 1.505 0 0 1-.06 1.128 1.76 1.76 0 0 1-.06.132c.288.136.496.36.624.672.112.32.1.632-.036.936a1.13 1.13 0 0 1-.684.612l-.684.264c-.208.072-.384.132-.528.18-.08.032-.156.06-.228.084a8.002 8.002 0 0 0-.156.06 3.77 3.77 0 0 0-.252.06 1.092 1.092 0 0 1-.288.036Zm2.597 1.14c-.088 0-.172-.004-.252-.012a.906.906 0 0 1-.168-.012 1.654 1.654 0 0 1-.6-.312 1.28 1.28 0 0 1-.396-.504 1.146 1.146 0 0 1-.108-.3 1.893 1.893 0 0 1 .012-.66 12.19 12.19 0 0 1-.228-.156.95.95 0 0 1-.18-.18 1.337 1.337 0 0 1-.288-.816c0-.192.044-.376.132-.552.08-.176.192-.328.336-.456l.228-.228c.104-.112.2-.224.288-.336l.24-.264.348-.372c.12-.128.232-.244.336-.348.128-.112.24-.208.336-.288.096-.08.18-.144.252-.192.416-.256.848-.336 1.296-.24.464.12.772.38.924.78l-.012-.012c.032.072.056.144.072.216.024.064.04.132.048.204.112-.12.212-.232.3-.336.088-.112.168-.212.24-.3l.168-.192a.188.188 0 0 0 .036-.048l.024-.036c.184-.216.4-.368.648-.456.256-.096.512-.112.768-.048.176.048.336.136.48.264.152.128.276.276.372.444.112.256.16.476.144.66-.008.176-.02.296-.036.36a.851.851 0 0 1-.036.108l-.024.108-.072.228-.012.036c.16.008.32.052.48.132.16.072.292.172.396.3.104.128.18.268.228.42.056.152.084.3.084.444 0 .4-.164.74-.492 1.02l-.06.06a10.63 10.63 0 0 1-.54.432c-.184.144-.38.28-.588.408-.472.28-.936.42-1.392.42-.192 0-.384-.028-.576-.084a1.295 1.295 0 0 1-.72-.444l-.276.228a6.362 6.362 0 0 1-.3.204h.012c-.184.128-.36.236-.528.324a6.35 6.35 0 0 1-.48.228 1.706 1.706 0 0 1-.432.12 2.775 2.775 0 0 1-.432.036Zm9.698-.9c-.112 0-.236-.02-.372-.06-.408-.096-.688-.344-.84-.744-.128-.304-.124-.648.012-1.032a3.81 3.81 0 0 1 .216-.48 1.43 1.43 0 0 0 .048-.108c.024-.04.048-.076.072-.108-.176.096-.356.2-.54.312-.176.104-.356.204-.54.3-.32.2-.632.384-.936.552-.304.16-.584.296-.84.408a1.13 1.13 0 0 1-.912.024 1.125 1.125 0 0 1-.66-.636 1.132 1.132 0 0 1-.024-.912c.12-.312.332-.532.636-.66.184-.088.412-.204.684-.348.272-.152.556-.316.852-.492.352-.208.724-.42 1.116-.636.392-.224.772-.416 1.14-.576.424-.208.82-.348 1.188-.42.256-.064.496-.1.72-.108.224-.008.436.016.636.072.44.128.74.4.9.816.12.296.136.592.048.888-.08.288-.188.56-.324.816l.072-.024c.032-.008.06-.016.084-.024.304-.112.604-.096.9.048.304.136.512.36.624.672.112.312.1.62-.036.924a1.13 1.13 0 0 1-.684.612 566.032 566.032 0 0 0-1.86.648c-.328.096-.6.168-.816.216-.208.04-.396.06-.564.06Zm12.903 0c-.112 0-.236-.02-.372-.06-.408-.096-.688-.344-.84-.744-.128-.304-.124-.648.012-1.032a3.81 3.81 0 0 1 .216-.48 1.43 1.43 0 0 0 .048-.108c.024-.04.048-.076.072-.108-.176.096-.356.2-.54.312-.176.104-.356.204-.54.3-.32.2-.632.384-.936.552-.304.16-.584.296-.84.408a1.13 1.13 0 0 1-.912.024 1.125 1.125 0 0 1-.66-.636 1.132 1.132 0 0 1-.024-.912c.12-.312.332-.532.636-.66.184-.088.412-.204.684-.348.272-.152.556-.316.852-.492.352-.208.724-.42 1.116-.636.392-.224.772-.416 1.14-.576.424-.208.82-.348 1.188-.42.256-.064.496-.1.72-.108.224-.008.436.016.636.072.44.128.74.4.9.816.12.296.136.592.048.888-.08.288-.188.56-.324.816l.072-.024c.032-.008.06-.016.084-.024.304-.112.604-.096.9.048.304.136.512.36.624.672.112.312.1.62-.036.924a1.13 1.13 0 0 1-.684.612 566.032 566.032 0 0 0-1.86.648c-.328.096-.6.168-.816.216-.208.04-.396.06-.564.06Zm5.614.12c-.296 0-.548-.088-.756-.264a1.215 1.215 0 0 1-.408-1.272l.012-.024c.008-.024.016-.052.024-.084-.44.264-.84.464-1.2.6-.304.112-.608.1-.912-.036a1.17 1.17 0 0 1-.624-.672c-.12-.312-.108-.62.036-.924a1.17 1.17 0 0 1 .672-.624c.136-.048.364-.164.684-.348.328-.184.772-.5 1.332-.948.336-.272.612-.508.828-.708l.336-.312a1.16 1.16 0 0 1 1.152-.3c.328.088.576.28.744.576.128.224.184.452.168.684-.016.232-.06.5-.132.804-.008.08-.024.16-.048.24a4.543 4.543 0 0 0-.072.24c.256-.016.492.04.708.168.224.128.388.312.492.552.136.296.144.6.024.912-.12.304-.332.524-.636.66-.344.152-.656.3-.936.444l-.66.348c-.16.088-.244.132-.252.132a1.2 1.2 0 0 1-.576.156Zm8.64.78c-.088 0-.172-.004-.252-.012a.906.906 0 0 1-.168-.012 1.654 1.654 0 0 1-.6-.312 1.28 1.28 0 0 1-.396-.504 1.146 1.146 0 0 1-.108-.3 1.893 1.893 0 0 1 .012-.66 12.19 12.19 0 0 1-.228-.156.95.95 0 0 1-.18-.18 1.337 1.337 0 0 1-.288-.816c0-.192.044-.376.132-.552.08-.176.192-.328.336-.456l.228-.228c.104-.112.2-.224.288-.336l.24-.264.348-.372c.12-.128.232-.244.336-.348.128-.112.24-.208.336-.288.096-.08.18-.144.252-.192.416-.256.848-.336 1.296-.24.464.12.772.38.924.78l-.012-.012c.032.072.056.144.072.216.024.064.04.132.048.204.112-.12.212-.232.3-.336.088-.112.168-.212.24-.3l.168-.192a.188.188 0 0 0 .036-.048l.024-.036c.184-.216.4-.368.648-.456.256-.096.512-.112.768-.048.176.048.336.136.48.264.152.128.276.276.372.444.112.256.16.476.144.66-.008.176-.02.296-.036.36a.851.851 0 0 1-.036.108l-.024.108-.072.228-.012.036c.16.008.32.052.48.132.16.072.292.172.396.3.104.128.18.268.228.42.056.152.084.3.084.444 0 .4-.164.74-.492 1.02l-.06.06a10.63 10.63 0 0 1-.54.432c-.184.144-.38.28-.588.408-.472.28-.936.42-1.392.42-.192 0-.384-.028-.576-.084a1.295 1.295 0 0 1-.72-.444l-.276.228a6.362 6.362 0 0 1-.3.204h.012c-.184.128-.36.236-.528.324a6.35 6.35 0 0 1-.48.228 1.706 1.706 0 0 1-.432.12 2.775 2.775 0 0 1-.432.036Zm-38.3 11.22c-.296 0-.548-.088-.756-.264a1.215 1.215 0 0 1-.408-1.272l.012-.024c.008-.024.016-.052.024-.084-.44.264-.84.464-1.2.6-.304.112-.608.1-.912-.036a1.17 1.17 0 0 1-.624-.672c-.12-.312-.108-.62.036-.924a1.17 1.17 0 0 1 .672-.624c.136-.048.364-.164.684-.348.328-.184.772-.5 1.332-.948.336-.272.612-.508.828-.708l.336-.312a1.16 1.16 0 0 1 1.152-.3c.328.088.576.28.744.576.128.224.184.452.168.684-.016.232-.06.5-.132.804-.008.08-.024.16-.048.24a4.543 4.543 0 0 0-.072.24c.256-.016.492.04.708.168.224.128.388.312.492.552.136.296.144.6.024.912-.12.304-.332.524-.636.66-.344.152-.656.3-.936.444l-.66.348c-.16.088-.244.132-.252.132a1.2 1.2 0 0 1-.576.156Zm4.664 0c-.296 0-.548-.088-.756-.264a1.215 1.215 0 0 1-.408-1.272l.012-.024c.008-.024.016-.052.024-.084-.44.264-.84.464-1.2.6-.304.112-.608.1-.912-.036a1.17 1.17 0 0 1-.624-.672c-.12-.312-.108-.62.036-.924a1.17 1.17 0 0 1 .672-.624c.136-.048.364-.164.684-.348.328-.184.772-.5 1.332-.948.336-.272.612-.508.828-.708l.336-.312a1.16 1.16 0 0 1 1.152-.3c.328.088.576.28.744.576.128.224.184.452.168.684-.016.232-.06.5-.132.804-.008.08-.024.16-.048.24a4.543 4.543 0 0 0-.072.24c.256-.016.492.04.708.168.224.128.388.312.492.552.136.296.144.6.024.912-.12.304-.332.524-.636.66-.344.152-.656.3-.936.444l-.66.348c-.16.088-.244.132-.252.132a1.2 1.2 0 0 1-.576.156Zm4.664 0c-.296 0-.548-.088-.756-.264a1.215 1.215 0 0 1-.408-1.272l.012-.024c.008-.024.016-.052.024-.084-.44.264-.84.464-1.2.6-.304.112-.608.1-.912-.036a1.17 1.17 0 0 1-.624-.672c-.12-.312-.108-.62.036-.924a1.17 1.17 0 0 1 .672-.624c.136-.048.364-.164.684-.348.328-.184.772-.5 1.332-.948a16.857 16.857 0 0 0 1.164-1.02 1.16 1.16 0 0 1 1.152-.3c.328.088.576.28.744.576.128.224.184.452.168.684-.016.232-.06.5-.132.804-.008.08-.024.16-.048.24a4.543 4.543 0 0 0-.072.24c.256-.016.492.04.708.168.224.128.388.312.492.552.136.296.144.6.024.912-.12.304-.332.524-.636.66-.344.152-.656.3-.936.444l-.66.348c-.16.088-.244.132-.252.132a1.2 1.2 0 0 1-.576.156Zm3.908.708c-.144 0-.296-.02-.456-.06a1.092 1.092 0 0 1-.768-.612c-.104-.208-.152-.396-.144-.564l.036-.384.024-.12a.948.948 0 0 0 .036-.144c-.056.032-.108.06-.156.084a3.77 3.77 0 0 1-.156.048 1.225 1.225 0 0 1-1.092-.132 1.205 1.205 0 0 1-.396-1.5c.136-.304.36-.512.672-.624.032-.008.104-.04.216-.096.112-.064.28-.18.504-.348.232-.168.532-.412.9-.732.32-.28.592-.524.816-.732l.348-.336c.152-.152.328-.256.528-.312.208-.056.416-.052.624.012.344.088.592.288.744.6.048.08.088.204.12.372.04.16.028.344-.036.552 0 .008-.004.016-.012.024s-.012.02-.012.036a.466.466 0 0 0-.024.06.134.134 0 0 1-.012.06c-.016.056-.04.116-.072.18l-.084.228c-.032.08-.068.176-.108.288a3.255 3.255 0 0 1-.12.324l.048-.024a1.127 1.127 0 0 1 .948-.204c.32.064.568.236.744.516.192.272.252.572.18.9a1.148 1.148 0 0 1-.516.768c-.192.128-.376.256-.552.384-.168.12-.34.248-.516.384-.2.152-.388.292-.564.42-.168.128-.34.24-.516.336a2.364 2.364 0 0 1-.36.168 2.819 2.819 0 0 1-.336.12c-.176.04-.336.06-.48.06Zm10.512 0c-.144 0-.296-.02-.456-.06a1.092 1.092 0 0 1-.768-.612c-.104-.208-.152-.396-.144-.564l.036-.384.024-.12a.948.948 0 0 0 .036-.144c-.056.032-.108.06-.156.084a3.77 3.77 0 0 1-.156.048 1.225 1.225 0 0 1-1.092-.132 1.205 1.205 0 0 1-.396-1.5c.136-.304.36-.512.672-.624.032-.008.104-.04.216-.096.112-.064.28-.18.504-.348.232-.168.532-.412.9-.732.32-.28.592-.524.816-.732l.348-.336c.152-.152.328-.256.528-.312.208-.056.416-.052.624.012.344.088.592.288.744.6.048.08.088.204.12.372.04.16.028.344-.036.552 0 .008-.004.016-.012.024s-.012.02-.012.036a.466.466 0 0 0-.024.06.134.134 0 0 1-.012.06c-.016.056-.04.116-.072.18l-.084.228c-.032.08-.068.176-.108.288a3.255 3.255 0 0 1-.12.324l.048-.024a1.127 1.127 0 0 1 .948-.204c.32.064.568.236.744.516.192.272.252.572.18.9a1.148 1.148 0 0 1-.516.768c-.192.128-.376.256-.552.384-.168.12-.34.248-.516.384-.2.152-.388.292-.564.42-.168.128-.34.24-.516.336a2.364 2.364 0 0 1-.36.168 2.819 2.819 0 0 1-.336.12c-.176.04-.336.06-.48.06Zm4.28-1.068c-.096 0-.204-.012-.324-.036a1.31 1.31 0 0 1-.84-.66 1.214 1.214 0 0 1-.696.06 1.176 1.176 0 0 1-.636-.384 1.14 1.14 0 0 1-.288-.864c.016-.336.148-.612.396-.828.088-.072.184-.156.288-.252.096-.104.2-.208.312-.312.192-.192.392-.388.6-.588a8.458 8.458 0 0 1 1.008-.804c.128-.08.248-.148.36-.204.416-.2.824-.256 1.224-.168.456.128.772.42.948.876.112.32.108.656-.012 1.008l-.048.12a1.76 1.76 0 0 1-.06.132c.288.136.496.36.624.672.112.32.1.632-.036.936a1.13 1.13 0 0 1-.684.612l-.684.264c-.208.072-.384.132-.528.18-.08.032-.156.06-.228.084a8.002 8.002 0 0 0-.156.06 3.77 3.77 0 0 0-.252.06 1.092 1.092 0 0 1-.288.036Zm2.596 1.14c-.088 0-.172-.004-.252-.012a.906.906 0 0 1-.168-.012 1.654 1.654 0 0 1-.6-.312 1.28 1.28 0 0 1-.396-.504 1.146 1.146 0 0 1-.108-.3 1.893 1.893 0 0 1 .012-.66 12.19 12.19 0 0 1-.228-.156.95.95 0 0 1-.18-.18 1.337 1.337 0 0 1-.288-.816c0-.192.044-.376.132-.552.08-.176.192-.328.336-.456l.228-.228c.104-.112.2-.224.288-.336l.24-.264.348-.372c.12-.128.232-.244.336-.348.128-.112.24-.208.336-.288.096-.08.18-.144.252-.192.416-.256.848-.336 1.296-.24.464.12.772.38.924.78l-.012-.012c.032.072.056.144.072.216.024.064.04.132.048.204.112-.12.212-.232.3-.336.088-.112.168-.212.24-.3l.168-.192a.188.188 0 0 0 .036-.048l.024-.036c.184-.216.4-.368.648-.456.256-.096.512-.112.768-.048.176.048.336.136.48.264.152.128.276.276.372.444.112.256.16.476.144.66-.008.176-.02.296-.036.36a.851.851 0 0 1-.036.108l-.024.108-.072.228-.012.036c.16.008.32.052.48.132.16.072.292.172.396.3.104.128.18.268.228.42.056.152.084.3.084.444 0 .4-.164.74-.492 1.02l-.06.06a10.63 10.63 0 0 1-.54.432c-.184.144-.38.28-.588.408-.472.28-.936.42-1.392.42-.192 0-.384-.028-.576-.084a1.295 1.295 0 0 1-.72-.444l-.276.228a6.362 6.362 0 0 1-.3.204h.012c-.184.128-.36.236-.528.324a6.35 6.35 0 0 1-.48.228 1.706 1.706 0 0 1-.432.12 2.775 2.775 0 0 1-.432.036Zm9.699-.9c-.112 0-.236-.02-.372-.06-.408-.096-.688-.344-.84-.744-.128-.304-.124-.648.012-1.032a3.81 3.81 0 0 1 .216-.48 1.43 1.43 0 0 0 .048-.108c.024-.04.048-.076.072-.108-.176.096-.356.2-.54.312-.176.104-.356.204-.54.3-.32.2-.632.384-.936.552-.304.16-.584.296-.84.408a1.13 1.13 0 0 1-.912.024 1.125 1.125 0 0 1-.66-.636 1.132 1.132 0 0 1-.024-.912c.12-.312.332-.532.636-.66.184-.088.412-.204.684-.348.272-.152.556-.316.852-.492.352-.208.724-.42 1.116-.636.392-.224.772-.416 1.14-.576.424-.208.82-.348 1.188-.42.256-.064.496-.1.72-.108.224-.008.436.016.636.072.44.128.74.4.9.816.12.296.136.592.048.888-.08.288-.188.56-.324.816l.072-.024c.032-.008.06-.016.084-.024.304-.112.604-.096.9.048.304.136.512.36.624.672.112.312.1.62-.036.924a1.13 1.13 0 0 1-.684.612 566.032 566.032 0 0 0-1.86.648c-.328.096-.6.168-.816.216-.208.04-.396.06-.564.06ZM99.992 125.6c-.144 0-.296-.02-.456-.06a1.092 1.092 0 0 1-.768-.612c-.104-.208-.152-.396-.144-.564l.036-.384.024-.12a.948.948 0 0 0 .036-.144c-.056.032-.108.06-.156.084a3.77 3.77 0 0 1-.156.048 1.225 1.225 0 0 1-1.092-.132 1.205 1.205 0 0 1-.396-1.5c.136-.304.36-.512.672-.624.032-.008.104-.04.216-.096.112-.064.28-.18.504-.348.232-.168.532-.412.9-.732.32-.28.592-.524.816-.732l.348-.336c.152-.152.328-.256.528-.312.208-.056.416-.052.624.012.344.088.592.288.744.6.048.08.088.204.12.372.04.16.028.344-.036.552 0 .008-.004.016-.012.024s-.012.02-.012.036a.466.466 0 0 0-.024.06.134.134 0 0 1-.012.06c-.016.056-.04.116-.072.18l-.084.228c-.032.08-.068.176-.108.288a3.255 3.255 0 0 1-.12.324l.048-.024a1.127 1.127 0 0 1 .948-.204c.32.064.568.236.744.516.192.272.252.572.18.9a1.148 1.148 0 0 1-.516.768c-.192.128-.376.256-.552.384-.168.12-.34.248-.516.384-.2.152-.388.292-.564.42-.168.128-.34.24-.516.336a2.364 2.364 0 0 1-.36.168 2.819 2.819 0 0 1-.336.12c-.176.04-.336.06-.48.06Zm3.572.072c-.088 0-.172-.004-.252-.012a.906.906 0 0 1-.168-.012 1.654 1.654 0 0 1-.6-.312 1.28 1.28 0 0 1-.396-.504 1.146 1.146 0 0 1-.108-.3 1.893 1.893 0 0 1 .012-.66 12.19 12.19 0 0 1-.228-.156.95.95 0 0 1-.18-.18 1.337 1.337 0 0 1-.288-.816c0-.192.044-.376.132-.552.08-.176.192-.328.336-.456l.228-.228c.104-.112.2-.224.288-.336l.24-.264.348-.372c.12-.128.232-.244.336-.348.128-.112.24-.208.336-.288.096-.08.18-.144.252-.192.416-.256.848-.336 1.296-.24.464.12.772.38.924.78l-.012-.012c.032.072.056.144.072.216.024.064.04.132.048.204.112-.12.212-.232.3-.336.088-.112.168-.212.24-.3l.168-.192a.188.188 0 0 0 .036-.048l.024-.036c.184-.216.4-.368.648-.456.256-.096.512-.112.768-.048.176.048.336.136.48.264.152.128.276.276.372.444.112.256.16.476.144.66-.008.176-.02.296-.036.36a.851.851 0 0 1-.036.108l-.024.108-.072.228-.012.036c.16.008.32.052.48.132.16.072.292.172.396.3.104.128.18.268.228.42.056.152.084.3.084.444 0 .4-.164.74-.492 1.02l-.06.06a10.63 10.63 0 0 1-.54.432c-.184.144-.38.28-.588.408-.472.28-.936.42-1.392.42-.192 0-.384-.028-.576-.084a1.295 1.295 0 0 1-.72-.444l-.276.228a6.362 6.362 0 0 1-.3.204h.012c-.184.128-.36.236-.528.324a6.35 6.35 0 0 1-.48.228 1.706 1.706 0 0 1-.432.12 2.775 2.775 0 0 1-.432.036Zm12.222 0c-.088 0-.172-.004-.252-.012a.906.906 0 0 1-.168-.012 1.654 1.654 0 0 1-.6-.312 1.28 1.28 0 0 1-.396-.504 1.146 1.146 0 0 1-.108-.3 1.893 1.893 0 0 1 .012-.66 12.19 12.19 0 0 1-.228-.156.95.95 0 0 1-.18-.18 1.337 1.337 0 0 1-.288-.816c0-.192.044-.376.132-.552.08-.176.192-.328.336-.456l.228-.228c.104-.112.2-.224.288-.336l.24-.264.348-.372c.12-.128.232-.244.336-.348.128-.112.24-.208.336-.288.096-.08.18-.144.252-.192.416-.256.848-.336 1.296-.24.464.12.772.38.924.78l-.012-.012c.032.072.056.144.072.216.024.064.04.132.048.204.112-.12.212-.232.3-.336.088-.112.168-.212.24-.3l.168-.192a.188.188 0 0 0 .036-.048l.024-.036c.184-.216.4-.368.648-.456.256-.096.512-.112.768-.048.176.048.336.136.48.264.152.128.276.276.372.444.112.256.16.476.144.66-.008.176-.02.296-.036.36a.851.851 0 0 1-.036.108l-.024.108-.072.228-.012.036c.16.008.32.052.48.132.16.072.292.172.396.3.104.128.18.268.228.42.056.152.084.3.084.444 0 .4-.164.74-.492 1.02l-.06.06a10.63 10.63 0 0 1-.54.432c-.184.144-.38.28-.588.408-.472.28-.936.42-1.392.42-.192 0-.384-.028-.576-.084a1.295 1.295 0 0 1-.72-.444l-.276.228a6.362 6.362 0 0 1-.3.204h.012c-.184.128-.36.236-.528.324a6.35 6.35 0 0 1-.48.228 1.706 1.706 0 0 1-.432.12 2.775 2.775 0 0 1-.432.036Zm6.387 0c-.088 0-.172-.004-.252-.012a.906.906 0 0 1-.168-.012 1.654 1.654 0 0 1-.6-.312 1.28 1.28 0 0 1-.396-.504 1.146 1.146 0 0 1-.108-.3 1.893 1.893 0 0 1 .012-.66 12.19 12.19 0 0 1-.228-.156.95.95 0 0 1-.18-.18 1.337 1.337 0 0 1-.288-.816c0-.192.044-.376.132-.552.08-.176.192-.328.336-.456l.228-.228c.104-.112.2-.224.288-.336l.24-.264.348-.372c.12-.128.232-.244.336-.348.128-.112.24-.208.336-.288.096-.08.18-.144.252-.192.416-.256.848-.336 1.296-.24.464.12.772.38.924.78l-.012-.012c.032.072.056.144.072.216.024.064.04.132.048.204.112-.12.212-.232.3-.336.088-.112.168-.212.24-.3l.168-.192a.188.188 0 0 0 .036-.048l.024-.036c.184-.216.4-.368.648-.456.256-.096.512-.112.768-.048.176.048.336.136.48.264.152.128.276.276.372.444.112.256.16.476.144.66-.008.176-.02.296-.036.36a.851.851 0 0 1-.036.108l-.024.108-.072.228-.012.036c.16.008.32.052.48.132.16.072.292.172.396.3.104.128.18.268.228.42.056.152.084.3.084.444 0 .4-.164.74-.492 1.02l-.06.06a10.63 10.63 0 0 1-.54.432c-.184.144-.38.28-.588.408-.472.28-.936.42-1.392.42-.192 0-.384-.028-.576-.084a1.295 1.295 0 0 1-.72-.444l-.276.228a6.362 6.362 0 0 1-.3.204h.012c-.184.128-.36.236-.528.324a6.35 6.35 0 0 1-.48.228 1.706 1.706 0 0 1-.432.12 2.775 2.775 0 0 1-.432.036Zm9.699-.9c-.112 0-.236-.02-.372-.06-.408-.096-.688-.344-.84-.744-.128-.304-.124-.648.012-1.032a3.81 3.81 0 0 1 .216-.48 1.43 1.43 0 0 0 .048-.108c.024-.04.048-.076.072-.108-.176.096-.356.2-.54.312-.176.104-.356.204-.54.3-.32.2-.632.384-.936.552-.304.16-.584.296-.84.408a1.13 1.13 0 0 1-.912.024 1.125 1.125 0 0 1-.66-.636 1.132 1.132 0 0 1-.024-.912c.12-.312.332-.532.636-.66.184-.088.412-.204.684-.348.272-.152.556-.316.852-.492.352-.208.724-.42 1.116-.636.392-.224.772-.416 1.14-.576.424-.208.82-.348 1.188-.42.256-.064.496-.1.72-.108.224-.008.436.016.636.072.44.128.74.4.9.816.12.296.136.592.048.888-.08.288-.188.56-.324.816l.072-.024c.032-.008.06-.016.084-.024.304-.112.604-.096.9.048.304.136.512.36.624.672.112.312.1.62-.036.924a1.13 1.13 0 0 1-.684.612 566.032 566.032 0 0 0-1.86.648c-.328.096-.6.168-.816.216-.208.04-.396.06-.564.06Zm3.754.9c-.088 0-.172-.004-.252-.012a.906.906 0 0 1-.168-.012 1.654 1.654 0 0 1-.6-.312 1.28 1.28 0 0 1-.396-.504 1.146 1.146 0 0 1-.108-.3 1.893 1.893 0 0 1 .012-.66 12.19 12.19 0 0 1-.228-.156.95.95 0 0 1-.18-.18 1.337 1.337 0 0 1-.288-.816c0-.192.044-.376.132-.552.08-.176.192-.328.336-.456l.228-.228c.104-.112.2-.224.288-.336l.24-.264.348-.372c.12-.128.232-.244.336-.348.128-.112.24-.208.336-.288.096-.08.18-.144.252-.192.416-.256.848-.336 1.296-.24.464.12.772.38.924.78l-.012-.012c.032.072.056.144.072.216.024.064.04.132.048.204.112-.12.212-.232.3-.336.088-.112.168-.212.24-.3l.168-.192a.188.188 0 0 0 .036-.048l.024-.036c.184-.216.4-.368.648-.456.256-.096.512-.112.768-.048.176.048.336.136.48.264.152.128.276.276.372.444.112.256.16.476.144.66-.008.176-.02.296-.036.36a.851.851 0 0 1-.036.108l-.024.108-.072.228-.012.036c.16.008.32.052.48.132.16.072.292.172.396.3.104.128.18.268.228.42.056.152.084.3.084.444 0 .4-.164.74-.492 1.02l-.06.06a10.63 10.63 0 0 1-.54.432c-.184.144-.38.28-.588.408-.472.28-.936.42-1.392.42-.192 0-.384-.028-.576-.084a1.295 1.295 0 0 1-.72-.444l-.276.228a6.362 6.362 0 0 1-.3.204h.012c-.184.128-.36.236-.528.324a6.35 6.35 0 0 1-.48.228 1.706 1.706 0 0 1-.432.12 2.775 2.775 0 0 1-.432.036Zm7.095-1.14c-.096 0-.204-.012-.324-.036a1.31 1.31 0 0 1-.84-.66 1.214 1.214 0 0 1-.696.06 1.176 1.176 0 0 1-.636-.384 1.14 1.14 0 0 1-.288-.864c.016-.336.148-.612.396-.828.088-.072.184-.156.288-.252.096-.104.2-.208.312-.312.192-.192.392-.388.6-.588a8.458 8.458 0 0 1 1.008-.804c.128-.08.248-.148.36-.204.416-.2.824-.256 1.224-.168.456.128.772.42.948.876.112.32.108.656-.012 1.008l-.048.12a1.76 1.76 0 0 1-.06.132c.288.136.496.36.624.672.112.32.1.632-.036.936a1.13 1.13 0 0 1-.684.612l-.684.264c-.208.072-.384.132-.528.18-.08.032-.156.06-.228.084a8.002 8.002 0 0 0-.156.06 3.77 3.77 0 0 0-.252.06 1.092 1.092 0 0 1-.288.036ZM164.2 100.772c-.112 0-.236-.02-.372-.06-.408-.096-.688-.344-.84-.744-.128-.304-.124-.648.012-1.032a3.81 3.81 0 0 1 .216-.48 1.43 1.43 0 0 0 .048-.108c.024-.04.048-.076.072-.108-.176.096-.356.2-.54.312-.176.104-.356.204-.54.3-.32.2-.632.384-.936.552-.304.16-.584.296-.84.408a1.13 1.13 0 0 1-.912.024 1.125 1.125 0 0 1-.66-.636 1.132 1.132 0 0 1-.024-.912c.12-.312.332-.532.636-.66.184-.088.412-.204.684-.348.272-.152.556-.316.852-.492.352-.208.724-.42 1.116-.636.392-.224.772-.416 1.14-.576.424-.208.82-.348 1.188-.42.256-.064.496-.1.72-.108.224-.008.436.016.636.072.44.128.74.4.9.816.12.296.136.592.048.888-.08.288-.188.56-.324.816l.072-.024c.032-.008.06-.016.084-.024.304-.112.604-.096.9.048.304.136.512.36.624.672.112.312.1.62-.036.924a1.13 1.13 0 0 1-.684.612 566.032 566.032 0 0 0-1.86.648c-.328.096-.6.168-.816.216-.208.04-.396.06-.564.06Zm4.462-.24c-.096 0-.204-.012-.324-.036a1.31 1.31 0 0 1-.84-.66 1.214 1.214 0 0 1-.696.06 1.176 1.176 0 0 1-.636-.384 1.14 1.14 0 0 1-.288-.864c.016-.336.148-.612.396-.828.088-.072.184-.156.288-.252.096-.104.2-.208.312-.312.192-.192.392-.388.6-.588a8.458 8.458 0 0 1 1.008-.804c.128-.08.248-.148.36-.204.416-.2.824-.256 1.224-.168.456.128.772.42.948.876.112.32.108.656-.012 1.008l-.048.12a1.76 1.76 0 0 1-.06.132c.288.136.496.36.624.672.112.32.1.632-.036.936a1.13 1.13 0 0 1-.684.612l-.684.264c-.208.072-.384.132-.528.18-.08.032-.156.06-.228.084a8.002 8.002 0 0 0-.156.06 3.77 3.77 0 0 0-.252.06 1.092 1.092 0 0 1-.288.036Zm2.597 1.14c-.088 0-.172-.004-.252-.012a.906.906 0 0 1-.168-.012 1.654 1.654 0 0 1-.6-.312 1.28 1.28 0 0 1-.396-.504 1.146 1.146 0 0 1-.108-.3 1.893 1.893 0 0 1 .012-.66 12.19 12.19 0 0 1-.228-.156.95.95 0 0 1-.18-.18 1.337 1.337 0 0 1-.288-.816c0-.192.044-.376.132-.552.08-.176.192-.328.336-.456l.228-.228c.104-.112.2-.224.288-.336l.24-.264.348-.372c.12-.128.232-.244.336-.348.128-.112.24-.208.336-.288.096-.08.18-.144.252-.192.416-.256.848-.336 1.296-.24.464.12.772.38.924.78l-.012-.012c.032.072.056.144.072.216.024.064.04.132.048.204.112-.12.212-.232.3-.336.088-.112.168-.212.24-.3l.168-.192a.188.188 0 0 0 .036-.048l.024-.036c.184-.216.4-.368.648-.456.256-.096.512-.112.768-.048.176.048.336.136.48.264.152.128.276.276.372.444.112.256.16.476.144.66-.008.176-.02.296-.036.36a.851.851 0 0 1-.036.108l-.024.108-.072.228-.012.036c.16.008.32.052.48.132.16.072.292.172.396.3.104.128.18.268.228.42.056.152.084.3.084.444 0 .4-.164.74-.492 1.02l-.06.06a10.63 10.63 0 0 1-.54.432c-.184.144-.38.28-.588.408-.472.28-.936.42-1.392.42-.192 0-.384-.028-.576-.084a1.295 1.295 0 0 1-.72-.444l-.276.228a6.362 6.362 0 0 1-.3.204h.012c-.184.128-.36.236-.528.324a6.35 6.35 0 0 1-.48.228 1.706 1.706 0 0 1-.432.12 2.775 2.775 0 0 1-.432.036Zm12.223 0c-.088 0-.172-.004-.252-.012a.906.906 0 0 1-.168-.012 1.654 1.654 0 0 1-.6-.312 1.28 1.28 0 0 1-.396-.504 1.146 1.146 0 0 1-.108-.3 1.893 1.893 0 0 1 .012-.66 12.19 12.19 0 0 1-.228-.156.95.95 0 0 1-.18-.18 1.337 1.337 0 0 1-.288-.816c0-.192.044-.376.132-.552.08-.176.192-.328.336-.456l.228-.228c.104-.112.2-.224.288-.336l.24-.264.348-.372c.12-.128.232-.244.336-.348.128-.112.24-.208.336-.288.096-.08.18-.144.252-.192.416-.256.848-.336 1.296-.24.464.12.772.38.924.78l-.012-.012c.032.072.056.144.072.216.024.064.04.132.048.204.112-.12.212-.232.3-.336.088-.112.168-.212.24-.3l.168-.192a.188.188 0 0 0 .036-.048l.024-.036c.184-.216.4-.368.648-.456.256-.096.512-.112.768-.048.176.048.336.136.48.264.152.128.276.276.372.444.112.256.16.476.144.66-.008.176-.02.296-.036.36a.851.851 0 0 1-.036.108l-.024.108-.072.228-.012.036c.16.008.32.052.48.132.16.072.292.172.396.3.104.128.18.268.228.42.056.152.084.3.084.444 0 .4-.164.74-.492 1.02l-.06.06a10.63 10.63 0 0 1-.54.432c-.184.144-.38.28-.588.408-.472.28-.936.42-1.392.42-.192 0-.384-.028-.576-.084a1.295 1.295 0 0 1-.72-.444l-.276.228a6.362 6.362 0 0 1-.3.204h.012c-.184.128-.36.236-.528.324a6.35 6.35 0 0 1-.48.228 1.706 1.706 0 0 1-.432.12 2.775 2.775 0 0 1-.432.036Zm7.094-1.14c-.096 0-.204-.012-.324-.036a1.31 1.31 0 0 1-.84-.66 1.214 1.214 0 0 1-.696.06 1.176 1.176 0 0 1-.636-.384 1.14 1.14 0 0 1-.288-.864c.016-.336.148-.612.396-.828.088-.072.184-.156.288-.252.096-.104.2-.208.312-.312.192-.192.392-.388.6-.588a8.458 8.458 0 0 1 1.008-.804c.128-.08.248-.148.36-.204.416-.2.824-.256 1.224-.168.456.128.772.42.948.876.112.32.108.656-.012 1.008l-.048.12a1.76 1.76 0 0 1-.06.132c.288.136.496.36.624.672.112.32.1.632-.036.936a1.13 1.13 0 0 1-.684.612l-.684.264c-.208.072-.384.132-.528.18-.08.032-.156.06-.228.084a8.002 8.002 0 0 0-.156.06 3.77 3.77 0 0 0-.252.06 1.092 1.092 0 0 1-.288.036Zm3.305 0c-.096 0-.204-.012-.324-.036a1.31 1.31 0 0 1-.84-.66 1.214 1.214 0 0 1-.696.06 1.176 1.176 0 0 1-.636-.384 1.14 1.14 0 0 1-.288-.864c.016-.336.148-.612.396-.828.088-.072.184-.156.288-.252.096-.104.2-.208.312-.312.192-.192.392-.388.6-.588a8.458 8.458 0 0 1 1.008-.804c.128-.08.248-.148.36-.204.416-.2.824-.256 1.224-.168.456.128.772.42.948.876.112.32.108.656-.012 1.008l-.048.12a1.76 1.76 0 0 1-.06.132c.288.136.496.36.624.672.112.32.1.632-.036.936a1.13 1.13 0 0 1-.684.612l-.684.264c-.208.072-.384.132-.528.18-.08.032-.156.06-.228.084a8.002 8.002 0 0 0-.156.06 3.77 3.77 0 0 0-.252.06 1.092 1.092 0 0 1-.288.036Zm-32.993 13.14c-.088 0-.172-.004-.252-.012a.906.906 0 0 1-.168-.012 1.654 1.654 0 0 1-.6-.312 1.28 1.28 0 0 1-.396-.504 1.146 1.146 0 0 1-.108-.3 1.893 1.893 0 0 1 .012-.66 12.19 12.19 0 0 1-.228-.156.95.95 0 0 1-.18-.18 1.337 1.337 0 0 1-.288-.816c0-.192.044-.376.132-.552.08-.176.192-.328.336-.456l.228-.228c.104-.112.2-.224.288-.336l.24-.264.348-.372c.12-.128.232-.244.336-.348.128-.112.24-.208.336-.288.096-.08.18-.144.252-.192.416-.256.848-.336 1.296-.24.464.12.772.38.924.78l-.012-.012c.032.072.056.144.072.216.024.064.04.132.048.204.112-.12.212-.232.3-.336.088-.112.168-.212.24-.3l.168-.192a.188.188 0 0 0 .036-.048l.024-.036c.184-.216.4-.368.648-.456.256-.096.512-.112.768-.048.176.048.336.136.48.264.152.128.276.276.372.444.112.256.16.476.144.66-.008.176-.02.296-.036.36a.851.851 0 0 1-.036.108l-.024.108-.072.228-.012.036c.16.008.32.052.48.132.16.072.292.172.396.3.104.128.18.268.228.42.056.152.084.3.084.444 0 .4-.164.74-.492 1.02l-.06.06a10.63 10.63 0 0 1-.54.432c-.184.144-.38.28-.588.408-.472.28-.936.42-1.392.42-.192 0-.384-.028-.576-.084a1.295 1.295 0 0 1-.72-.444l-.276.228a6.362 6.362 0 0 1-.3.204h.012c-.184.128-.36.236-.528.324a6.35 6.35 0 0 1-.48.228 1.706 1.706 0 0 1-.432.12 2.775 2.775 0 0 1-.432.036Zm8.247-.78c-.296 0-.548-.088-.756-.264a1.215 1.215 0 0 1-.408-1.272l.012-.024c.008-.024.016-.052.024-.084-.44.264-.84.464-1.2.6-.304.112-.608.1-.912-.036a1.17 1.17 0 0 1-.624-.672c-.12-.312-.108-.62.036-.924a1.17 1.17 0 0 1 .672-.624c.136-.048.364-.164.684-.348.328-.184.772-.5 1.332-.948.336-.272.612-.508.828-.708l.336-.312a1.16 1.16 0 0 1 1.152-.3c.328.088.576.28.744.576.128.224.184.452.168.684-.016.232-.06.5-.132.804-.008.08-.024.16-.048.24a4.543 4.543 0 0 0-.072.24c.256-.016.492.04.708.168.224.128.388.312.492.552.136.296.144.6.024.912-.12.304-.332.524-.636.66-.344.152-.656.3-.936.444l-.66.348c-.16.088-.244.132-.252.132a1.2 1.2 0 0 1-.576.156Zm3.512-.36c-.096 0-.204-.012-.324-.036a1.31 1.31 0 0 1-.84-.66 1.214 1.214 0 0 1-.696.06 1.176 1.176 0 0 1-.636-.384 1.14 1.14 0 0 1-.288-.864c.016-.336.148-.612.396-.828.088-.072.184-.156.288-.252.096-.104.2-.208.312-.312.192-.192.392-.388.6-.588a8.458 8.458 0 0 1 1.008-.804c.128-.08.248-.148.36-.204.416-.2.824-.256 1.224-.168.456.128.772.42.948.876.112.32.108.656-.012 1.008l-.048.12a1.76 1.76 0 0 1-.06.132c.288.136.496.36.624.672.112.32.1.632-.036.936a1.13 1.13 0 0 1-.684.612l-.684.264c-.208.072-.384.132-.528.18-.08.032-.156.06-.228.084a8.002 8.002 0 0 0-.156.06 3.77 3.77 0 0 0-.252.06 1.092 1.092 0 0 1-.288.036Zm9.14 0c-.096 0-.204-.012-.324-.036a1.31 1.31 0 0 1-.84-.66 1.214 1.214 0 0 1-.696.06 1.176 1.176 0 0 1-.636-.384 1.14 1.14 0 0 1-.288-.864c.016-.336.148-.612.396-.828.088-.072.184-.156.288-.252.096-.104.2-.208.312-.312.192-.192.392-.388.6-.588a8.458 8.458 0 0 1 1.008-.804c.128-.08.248-.148.36-.204.416-.2.824-.256 1.224-.168.456.128.772.42.948.876.112.32.108.656-.012 1.008l-.048.12a1.76 1.76 0 0 1-.06.132c.288.136.496.36.624.672.112.32.1.632-.036.936a1.13 1.13 0 0 1-.684.612l-.684.264c-.208.072-.384.132-.528.18-.08.032-.156.06-.228.084a8.002 8.002 0 0 0-.156.06 3.77 3.77 0 0 0-.252.06 1.092 1.092 0 0 1-.288.036Zm3.701 1.068c-.144 0-.296-.02-.456-.06a1.092 1.092 0 0 1-.768-.612c-.104-.208-.152-.396-.144-.564l.036-.384.024-.12a.948.948 0 0 0 .036-.144c-.056.032-.108.06-.156.084a3.77 3.77 0 0 1-.156.048 1.225 1.225 0 0 1-1.092-.132 1.205 1.205 0 0 1-.396-1.5c.136-.304.36-.512.672-.624.032-.008.104-.04.216-.096.112-.064.28-.18.504-.348.232-.168.532-.412.9-.732.32-.28.592-.524.816-.732l.348-.336c.152-.152.328-.256.528-.312.208-.056.416-.052.624.012.344.088.592.288.744.6.048.08.088.204.12.372.04.16.028.344-.036.552 0 .008-.004.016-.012.024s-.012.02-.012.036a.466.466 0 0 0-.024.06.134.134 0 0 1-.012.06c-.016.056-.04.116-.072.18l-.084.228c-.032.08-.068.176-.108.288a3.255 3.255 0 0 1-.12.324l.048-.024a1.127 1.127 0 0 1 .948-.204c.32.064.568.236.744.516.192.272.252.572.18.9a1.148 1.148 0 0 1-.516.768c-.192.128-.376.256-.552.384-.168.12-.34.248-.516.384-.2.152-.388.292-.564.42-.168.128-.34.24-.516.336a2.364 2.364 0 0 1-.36.168 2.819 2.819 0 0 1-.336.12c-.176.04-.336.06-.48.06Zm5.432-.708c-.296 0-.548-.088-.756-.264a1.215 1.215 0 0 1-.408-1.272l.012-.024c.008-.024.016-.052.024-.084-.44.264-.84.464-1.2.6-.304.112-.608.1-.912-.036a1.17 1.17 0 0 1-.624-.672c-.12-.312-.108-.62.036-.924a1.17 1.17 0 0 1 .672-.624c.136-.048.364-.164.684-.348.328-.184.772-.5 1.332-.948.336-.272.612-.508.828-.708l.336-.312a1.16 1.16 0 0 1 1.152-.3c.328.088.576.28.744.576.128.224.184.452.168.684-.016.232-.06.5-.132.804-.008.08-.024.16-.048.24a4.543 4.543 0 0 0-.072.24c.256-.016.492.04.708.168.224.128.388.312.492.552.136.296.144.6.024.912-.12.304-.332.524-.636.66-.344.152-.656.3-.936.444l-.66.348c-.16.088-.244.132-.252.132a1.2 1.2 0 0 1-.576.156Zm6.116-.12c-.112 0-.236-.02-.372-.06-.408-.096-.688-.344-.84-.744-.128-.304-.124-.648.012-1.032a3.81 3.81 0 0 1 .216-.48 1.43 1.43 0 0 0 .048-.108c.024-.04.048-.076.072-.108-.176.096-.356.2-.54.312-.176.104-.356.204-.54.3-.32.2-.632.384-.936.552-.304.16-.584.296-.84.408a1.13 1.13 0 0 1-.912.024 1.125 1.125 0 0 1-.66-.636 1.132 1.132 0 0 1-.024-.912c.12-.312.332-.532.636-.66.184-.088.412-.204.684-.348.272-.152.556-.316.852-.492.352-.208.724-.42 1.116-.636.392-.224.772-.416 1.14-.576.424-.208.82-.348 1.188-.42.256-.064.496-.1.72-.108.224-.008.436.016.636.072.44.128.74.4.9.816.12.296.136.592.048.888-.08.288-.188.56-.324.816l.072-.024c.032-.008.06-.016.084-.024.304-.112.604-.096.9.048.304.136.512.36.624.672.112.312.1.62-.036.924a1.13 1.13 0 0 1-.684.612 566.032 566.032 0 0 0-1.86.648c-.328.096-.6.168-.816.216-.208.04-.396.06-.564.06Zm3.754.9c-.088 0-.172-.004-.252-.012a.906.906 0 0 1-.168-.012 1.654 1.654 0 0 1-.6-.312 1.28 1.28 0 0 1-.396-.504 1.146 1.146 0 0 1-.108-.3 1.893 1.893 0 0 1 .012-.66 12.19 12.19 0 0 1-.228-.156.95.95 0 0 1-.18-.18 1.337 1.337 0 0 1-.288-.816c0-.192.044-.376.132-.552.08-.176.192-.328.336-.456l.228-.228c.104-.112.2-.224.288-.336l.24-.264.348-.372c.12-.128.232-.244.336-.348.128-.112.24-.208.336-.288.096-.08.18-.144.252-.192.416-.256.848-.336 1.296-.24.464.12.772.38.924.78l-.012-.012c.032.072.056.144.072.216.024.064.04.132.048.204.112-.12.212-.232.3-.336.088-.112.168-.212.24-.3l.168-.192a.188.188 0 0 0 .036-.048l.024-.036c.184-.216.4-.368.648-.456.256-.096.512-.112.768-.048.176.048.336.136.48.264.152.128.276.276.372.444.112.256.16.476.144.66-.008.176-.02.296-.036.36a.851.851 0 0 1-.036.108l-.024.108-.072.228-.012.036c.16.008.32.052.48.132.16.072.292.172.396.3.104.128.18.268.228.42.056.152.084.3.084.444 0 .4-.164.74-.492 1.02l-.06.06a10.63 10.63 0 0 1-.54.432c-.184.144-.38.28-.588.408-.472.28-.936.42-1.392.42-.192 0-.384-.028-.576-.084a1.295 1.295 0 0 1-.72-.444l-.276.228a6.362 6.362 0 0 1-.3.204h.012c-.184.128-.36.236-.528.324a6.35 6.35 0 0 1-.48.228 1.706 1.706 0 0 1-.432.12 2.775 2.775 0 0 1-.432.036Zm6.387 0c-.088 0-.172-.004-.252-.012a.906.906 0 0 1-.168-.012 1.654 1.654 0 0 1-.6-.312 1.28 1.28 0 0 1-.396-.504 1.146 1.146 0 0 1-.108-.3 1.893 1.893 0 0 1 .012-.66 12.19 12.19 0 0 1-.228-.156.95.95 0 0 1-.18-.18 1.337 1.337 0 0 1-.288-.816c0-.192.044-.376.132-.552.08-.176.192-.328.336-.456l.228-.228c.104-.112.2-.224.288-.336l.24-.264.348-.372c.12-.128.232-.244.336-.348.128-.112.24-.208.336-.288.096-.08.18-.144.252-.192.416-.256.848-.336 1.296-.24.464.12.772.38.924.78l-.012-.012c.032.072.056.144.072.216.024.064.04.132.048.204.112-.12.212-.232.3-.336.088-.112.168-.212.24-.3l.168-.192a.188.188 0 0 0 .036-.048l.024-.036c.184-.216.4-.368.648-.456.256-.096.512-.112.768-.048.176.048.336.136.48.264.152.128.276.276.372.444.112.256.16.476.144.66-.008.176-.02.296-.036.36a.851.851 0 0 1-.036.108l-.024.108-.072.228-.012.036c.16.008.32.052.48.132.16.072.292.172.396.3.104.128.18.268.228.42.056.152.084.3.084.444 0 .4-.164.74-.492 1.02l-.06.06a10.63 10.63 0 0 1-.54.432c-.184.144-.38.28-.588.408-.472.28-.936.42-1.392.42-.192 0-.384-.028-.576-.084a1.295 1.295 0 0 1-.72-.444l-.276.228a6.362 6.362 0 0 1-.3.204h.012c-.184.128-.36.236-.528.324a6.35 6.35 0 0 1-.48.228 1.706 1.706 0 0 1-.432.12 2.775 2.775 0 0 1-.432.036Zm-44.429 11.22c-.296 0-.548-.088-.756-.264a1.215 1.215 0 0 1-.408-1.272l.012-.024c.008-.024.016-.052.024-.084-.44.264-.84.464-1.2.6-.304.112-.608.1-.912-.036a1.17 1.17 0 0 1-.624-.672c-.12-.312-.108-.62.036-.924a1.17 1.17 0 0 1 .672-.624c.136-.048.364-.164.684-.348.328-.184.772-.5 1.332-.948.336-.272.612-.508.828-.708l.336-.312a1.16 1.16 0 0 1 1.152-.3c.328.088.576.28.744.576.128.224.184.452.168.684-.016.232-.06.5-.132.804-.008.08-.024.16-.048.24a4.543 4.543 0 0 0-.072.24c.256-.016.492.04.708.168.224.128.388.312.492.552.136.296.144.6.024.912-.12.304-.332.524-.636.66-.344.152-.656.3-.936.444l-.66.348c-.16.088-.244.132-.252.132a1.2 1.2 0 0 1-.576.156Zm3.908.708c-.144 0-.296-.02-.456-.06a1.092 1.092 0 0 1-.768-.612c-.104-.208-.152-.396-.144-.564l.036-.384.024-.12a.948.948 0 0 0 .036-.144c-.056.032-.108.06-.156.084a3.77 3.77 0 0 1-.156.048 1.225 1.225 0 0 1-1.092-.132 1.205 1.205 0 0 1-.396-1.5c.136-.304.36-.512.672-.624.032-.008.104-.04.216-.096.112-.064.28-.18.504-.348.232-.168.532-.412.9-.732.32-.28.592-.524.816-.732l.348-.336c.152-.152.328-.256.528-.312.208-.056.416-.052.624.012.344.088.592.288.744.6.048.08.088.204.12.372.04.16.028.344-.036.552 0 .008-.004.016-.012.024s-.012.02-.012.036a.466.466 0 0 0-.024.06.134.134 0 0 1-.012.06c-.016.056-.04.116-.072.18l-.084.228c-.032.08-.068.176-.108.288a3.255 3.255 0 0 1-.12.324l.048-.024a1.127 1.127 0 0 1 .948-.204c.32.064.568.236.744.516.192.272.252.572.18.9a1.148 1.148 0 0 1-.516.768c-.192.128-.376.256-.552.384-.168.12-.34.248-.516.384-.2.152-.388.292-.564.42-.168.128-.34.24-.516.336a2.364 2.364 0 0 1-.36.168 2.819 2.819 0 0 1-.336.12c-.176.04-.336.06-.48.06Zm3.572.072c-.088 0-.172-.004-.252-.012a.906.906 0 0 1-.168-.012 1.654 1.654 0 0 1-.6-.312 1.28 1.28 0 0 1-.396-.504 1.146 1.146 0 0 1-.108-.3 1.893 1.893 0 0 1 .012-.66 12.19 12.19 0 0 1-.228-.156.95.95 0 0 1-.18-.18 1.337 1.337 0 0 1-.288-.816c0-.192.044-.376.132-.552.08-.176.192-.328.336-.456l.228-.228c.104-.112.2-.224.288-.336l.24-.264.348-.372c.12-.128.232-.244.336-.348.128-.112.24-.208.336-.288.096-.08.18-.144.252-.192.416-.256.848-.336 1.296-.24.464.12.772.38.924.78l-.012-.012c.032.072.056.144.072.216.024.064.04.132.048.204.112-.12.212-.232.3-.336.088-.112.168-.212.24-.3l.168-.192a.188.188 0 0 0 .036-.048l.024-.036c.184-.216.4-.368.648-.456.256-.096.512-.112.768-.048.176.048.336.136.48.264.152.128.276.276.372.444.112.256.16.476.144.66-.008.176-.02.296-.036.36a.851.851 0 0 1-.036.108l-.024.108-.072.228-.012.036c.16.008.32.052.48.132.16.072.292.172.396.3.104.128.18.268.228.42.056.152.084.3.084.444 0 .4-.164.74-.492 1.02l-.06.06a10.63 10.63 0 0 1-.54.432c-.184.144-.38.28-.588.408-.472.28-.936.42-1.392.42-.192 0-.384-.028-.576-.084a1.295 1.295 0 0 1-.72-.444l-.276.228a6.362 6.362 0 0 1-.3.204h.012c-.184.128-.36.236-.528.324a6.35 6.35 0 0 1-.48.228 1.706 1.706 0 0 1-.432.12 2.775 2.775 0 0 1-.432.036Zm9.699-.9c-.112 0-.236-.02-.372-.06-.408-.096-.688-.344-.84-.744-.128-.304-.124-.648.012-1.032a3.81 3.81 0 0 1 .216-.48 1.43 1.43 0 0 0 .048-.108c.024-.04.048-.076.072-.108-.176.096-.356.2-.54.312-.176.104-.356.204-.54.3-.32.2-.632.384-.936.552-.304.16-.584.296-.84.408a1.13 1.13 0 0 1-.912.024 1.125 1.125 0 0 1-.66-.636 1.132 1.132 0 0 1-.024-.912c.12-.312.332-.532.636-.66.184-.088.412-.204.684-.348.272-.152.556-.316.852-.492.352-.208.724-.42 1.116-.636.392-.224.772-.416 1.14-.576.424-.208.82-.348 1.188-.42.256-.064.496-.1.72-.108.224-.008.436.016.636.072.44.128.74.4.9.816.12.296.136.592.048.888-.08.288-.188.56-.324.816l.072-.024c.032-.008.06-.016.084-.024.304-.112.604-.096.9.048.304.136.512.36.624.672.112.312.1.62-.036.924a1.13 1.13 0 0 1-.684.612 566.032 566.032 0 0 0-1.86.648c-.328.096-.6.168-.816.216-.208.04-.396.06-.564.06Zm12.902 0c-.112 0-.236-.02-.372-.06-.408-.096-.688-.344-.84-.744-.128-.304-.124-.648.012-1.032a3.81 3.81 0 0 1 .216-.48 1.43 1.43 0 0 0 .048-.108c.024-.04.048-.076.072-.108-.176.096-.356.2-.54.312-.176.104-.356.204-.54.3-.32.2-.632.384-.936.552-.304.16-.584.296-.84.408a1.13 1.13 0 0 1-.912.024 1.125 1.125 0 0 1-.66-.636 1.132 1.132 0 0 1-.024-.912c.12-.312.332-.532.636-.66.184-.088.412-.204.684-.348.272-.152.556-.316.852-.492.352-.208.724-.42 1.116-.636.392-.224.772-.416 1.14-.576.424-.208.82-.348 1.188-.42.256-.064.496-.1.72-.108.224-.008.436.016.636.072.44.128.74.4.9.816.12.296.136.592.048.888-.08.288-.188.56-.324.816l.072-.024c.032-.008.06-.016.084-.024.304-.112.604-.096.9.048.304.136.512.36.624.672.112.312.1.62-.036.924a1.13 1.13 0 0 1-.684.612 566.032 566.032 0 0 0-1.86.648c-.328.096-.6.168-.816.216-.208.04-.396.06-.564.06Zm4.462-.24c-.096 0-.204-.012-.324-.036a1.31 1.31 0 0 1-.84-.66 1.214 1.214 0 0 1-.696.06 1.176 1.176 0 0 1-.636-.384 1.14 1.14 0 0 1-.288-.864c.016-.336.148-.612.396-.828.088-.072.184-.156.288-.252.096-.104.2-.208.312-.312.192-.192.392-.388.6-.588a8.458 8.458 0 0 1 1.008-.804c.128-.08.248-.148.36-.204.416-.2.824-.256 1.224-.168.456.128.772.42.948.876.112.32.108.656-.012 1.008l-.048.12a1.76 1.76 0 0 1-.06.132c.288.136.496.36.624.672.112.32.1.632-.036.936a1.13 1.13 0 0 1-.684.612l-.684.264c-.208.072-.384.132-.528.18-.08.032-.156.06-.228.084a8.002 8.002 0 0 0-.156.06 3.77 3.77 0 0 0-.252.06 1.092 1.092 0 0 1-.288.036Zm2.597 1.14c-.088 0-.172-.004-.252-.012a.906.906 0 0 1-.168-.012 1.654 1.654 0 0 1-.6-.312 1.28 1.28 0 0 1-.396-.504 1.146 1.146 0 0 1-.108-.3 1.893 1.893 0 0 1 .012-.66 12.19 12.19 0 0 1-.228-.156.95.95 0 0 1-.18-.18 1.337 1.337 0 0 1-.288-.816c0-.192.044-.376.132-.552.08-.176.192-.328.336-.456l.228-.228c.104-.112.2-.224.288-.336l.24-.264.348-.372c.12-.128.232-.244.336-.348.128-.112.24-.208.336-.288.096-.08.18-.144.252-.192.416-.256.848-.336 1.296-.24.464.12.772.38.924.78l-.012-.012c.032.072.056.144.072.216.024.064.04.132.048.204.112-.12.212-.232.3-.336.088-.112.168-.212.24-.3l.168-.192a.188.188 0 0 0 .036-.048l.024-.036c.184-.216.4-.368.648-.456.256-.096.512-.112.768-.048.176.048.336.136.48.264.152.128.276.276.372.444.112.256.16.476.144.66-.008.176-.02.296-.036.36a.851.851 0 0 1-.036.108l-.024.108-.072.228-.012.036c.16.008.32.052.48.132.16.072.292.172.396.3.104.128.18.268.228.42.056.152.084.3.084.444 0 .4-.164.74-.492 1.02l-.06.06a10.63 10.63 0 0 1-.54.432c-.184.144-.38.28-.588.408-.472.28-.936.42-1.392.42-.192 0-.384-.028-.576-.084a1.295 1.295 0 0 1-.72-.444l-.276.228a6.362 6.362 0 0 1-.3.204h.012c-.184.128-.36.236-.528.324a6.35 6.35 0 0 1-.48.228 1.706 1.706 0 0 1-.432.12 2.775 2.775 0 0 1-.432.036ZM101.664 79.856c-.395 0-.731-.117-1.008-.352a1.542 1.542 0 0 1-.528-.768 1.623 1.623 0 0 1-.016-.928l.016-.032c.011-.032.021-.07.032-.112a10.13 10.13 0 0 1-1.6.8c-.405.15-.81.133-1.216-.048a1.56 1.56 0 0 1-.832-.896 1.505 1.505 0 0 1 .048-1.232 1.56 1.56 0 0 1 .896-.832c.181-.064.485-.219.912-.464.437-.245 1.03-.667 1.776-1.264.448-.363.816-.677 1.104-.944l.448-.416c.437-.416.949-.55 1.536-.4.437.117.768.373.992.768.171.299.245.603.224.912-.021.31-.08.667-.176 1.072a1.728 1.728 0 0 1-.064.32 6.067 6.067 0 0 0-.096.32c.341-.021.656.053.944.224.299.17.517.416.656.736.181.395.192.8.032 1.216-.16.405-.443.699-.848.88-.459.203-.875.4-1.248.592l-.88.464a3.711 3.711 0 0 1-.336.176 1.6 1.6 0 0 1-.768.208Zm8.155-.16c-.15 0-.315-.027-.496-.08-.544-.128-.918-.459-1.12-.992-.171-.405-.166-.864.016-1.376.064-.181.16-.395.288-.64.021-.043.042-.09.064-.144.032-.053.064-.101.096-.144-.235.128-.475.267-.72.416-.235.139-.475.272-.72.4-.427.267-.843.512-1.248.736-.406.213-.779.395-1.12.544-.395.181-.8.192-1.216.032a1.498 1.498 0 0 1-.88-.848 1.507 1.507 0 0 1-.032-1.216c.16-.416.442-.71.848-.88.245-.117.549-.272.912-.464.362-.203.741-.421 1.136-.656.469-.277.965-.56 1.488-.848a15.53 15.53 0 0 1 1.52-.768 6.439 6.439 0 0 1 1.584-.56c.341-.085.661-.133.96-.144.298-.01.581.021.848.096.586.17.986.533 1.2 1.088.16.395.181.79.064 1.184a5.42 5.42 0 0 1-.432 1.088l.096-.032c.042-.01.08-.021.112-.032.405-.15.805-.128 1.2.064.405.181.682.48.832.896.149.416.133.827-.048 1.232a1.51 1.51 0 0 1-.912.816c-.491.17-.95.33-1.376.48-.416.15-.784.277-1.104.384-.438.128-.8.224-1.088.288-.278.053-.528.08-.752.08Zm5.95-.32c-.128 0-.272-.016-.432-.048a1.745 1.745 0 0 1-1.12-.88 1.62 1.62 0 0 1-.928.08 1.565 1.565 0 0 1-.848-.512 1.52 1.52 0 0 1-.384-1.152c.021-.448.197-.816.528-1.104.117-.096.245-.208.384-.336.128-.139.266-.277.416-.416.256-.256.522-.517.8-.784a11.208 11.208 0 0 1 1.344-1.072c.17-.107.33-.197.48-.272.554-.267 1.098-.341 1.632-.224.608.17 1.029.56 1.264 1.168.149.427.144.875-.016 1.344l-.064.16a2.658 2.658 0 0 1-.08.176c.384.181.661.48.832.896.149.427.133.843-.048 1.248a1.51 1.51 0 0 1-.912.816l-.912.352c-.278.096-.512.176-.704.24-.107.043-.208.08-.304.112a8.782 8.782 0 0 0-.208.08 4.912 4.912 0 0 0-.336.08 1.463 1.463 0 0 1-.384.048Zm4.406 0c-.128 0-.272-.016-.432-.048a1.745 1.745 0 0 1-1.12-.88 1.62 1.62 0 0 1-.928.08 1.568 1.568 0 0 1-.848-.512 1.52 1.52 0 0 1-.384-1.152c.021-.448.197-.816.528-1.104.117-.096.245-.208.384-.336a7.77 7.77 0 0 1 .416-.416c.256-.256.523-.517.8-.784a11.208 11.208 0 0 1 1.344-1.072 5.96 5.96 0 0 1 .48-.272c.555-.267 1.099-.341 1.632-.224.608.17 1.029.56 1.264 1.168.149.427.144.875-.016 1.344l-.064.16a2.224 2.224 0 0 1-.08.176c.384.181.661.48.832.896.149.427.133.843-.048 1.248a1.504 1.504 0 0 1-.912.816l-.912.352c-.277.096-.512.176-.704.24-.107.043-.208.08-.304.112a10.89 10.89 0 0 0-.208.08 4.912 4.912 0 0 0-.336.08 1.452 1.452 0 0 1-.384.048Zm4.406 0c-.128 0-.272-.016-.432-.048a1.745 1.745 0 0 1-1.12-.88 1.62 1.62 0 0 1-.928.08 1.568 1.568 0 0 1-.848-.512 1.52 1.52 0 0 1-.384-1.152c.021-.448.197-.816.528-1.104.117-.096.245-.208.384-.336a7.77 7.77 0 0 1 .416-.416c.256-.256.523-.517.8-.784a11.208 11.208 0 0 1 1.344-1.072 5.96 5.96 0 0 1 .48-.272c.555-.267 1.099-.341 1.632-.224.608.17 1.029.56 1.264 1.168.149.427.144.875-.016 1.344l-.064.16a2.224 2.224 0 0 1-.08.176c.384.181.661.48.832.896.149.427.133.843-.048 1.248a1.504 1.504 0 0 1-.912.816l-.912.352c-.277.096-.512.176-.704.24-.107.043-.208.08-.304.112a10.89 10.89 0 0 0-.208.08 4.912 4.912 0 0 0-.336.08 1.452 1.452 0 0 1-.384.048Zm5.942.48a1.51 1.51 0 0 1-1.008-.352 1.542 1.542 0 0 1-.528-.768 1.623 1.623 0 0 1-.016-.928l.016-.032c.011-.032.022-.07.032-.112a10.1 10.1 0 0 1-1.6.8c-.405.15-.81.133-1.216-.048a1.563 1.563 0 0 1-.832-.896 1.505 1.505 0 0 1 .048-1.232 1.56 1.56 0 0 1 .896-.832c.182-.064.486-.219.912-.464.438-.245 1.03-.667 1.776-1.264.448-.363.816-.677 1.104-.944l.448-.416c.438-.416.95-.55 1.536-.4.438.117.768.373.992.768.171.299.246.603.224.912-.021.31-.08.667-.176 1.072a1.65 1.65 0 0 1-.064.32 6.067 6.067 0 0 0-.096.32c.342-.021.656.053.944.224.299.17.518.416.656.736.182.395.192.8.032 1.216a1.56 1.56 0 0 1-.848.88c-.458.203-.874.4-1.248.592l-.88.464a3.711 3.711 0 0 1-.336.176 1.6 1.6 0 0 1-.768.208Zm8.155-.16c-.149 0-.315-.027-.496-.08-.544-.128-.917-.459-1.12-.992-.171-.405-.165-.864.016-1.376.064-.181.16-.395.288-.64a1.92 1.92 0 0 0 .064-.144c.032-.053.064-.101.096-.144-.235.128-.475.267-.72.416-.235.139-.475.272-.72.4-.427.267-.843.512-1.248.736-.405.213-.779.395-1.12.544-.395.181-.8.192-1.216.032a1.501 1.501 0 0 1-.88-.848 1.51 1.51 0 0 1-.032-1.216c.16-.416.443-.71.848-.88.245-.117.549-.272.912-.464a48.96 48.96 0 0 0 1.136-.656c.469-.277.965-.56 1.488-.848a15.643 15.643 0 0 1 1.52-.768 6.439 6.439 0 0 1 1.584-.56c.341-.085.661-.133.96-.144.299-.01.581.021.848.096.587.17.987.533 1.2 1.088.16.395.181.79.064 1.184a5.42 5.42 0 0 1-.432 1.088l.096-.032c.043-.01.08-.021.112-.032.405-.15.805-.128 1.2.064a1.5 1.5 0 0 1 .832.896c.149.416.133.827-.048 1.232a1.504 1.504 0 0 1-.912.816c-.491.17-.949.33-1.376.48-.416.15-.784.277-1.104.384-.437.128-.8.224-1.088.288-.277.053-.528.08-.752.08Zm15.267.16a1.51 1.51 0 0 1-1.008-.352 1.542 1.542 0 0 1-.528-.768 1.623 1.623 0 0 1-.016-.928l.016-.032c.011-.032.022-.07.032-.112a10.1 10.1 0 0 1-1.6.8c-.405.15-.81.133-1.216-.048a1.563 1.563 0 0 1-.832-.896 1.505 1.505 0 0 1 .048-1.232 1.56 1.56 0 0 1 .896-.832c.182-.064.486-.219.912-.464.438-.245 1.03-.667 1.776-1.264.448-.363.816-.677 1.104-.944l.448-.416c.438-.416.95-.55 1.536-.4.438.117.768.373.992.768.171.299.246.603.224.912-.021.31-.08.667-.176 1.072a1.65 1.65 0 0 1-.064.32 6.067 6.067 0 0 0-.096.32c.342-.021.656.053.944.224.299.17.518.416.656.736.182.395.192.8.032 1.216a1.56 1.56 0 0 1-.848.88c-.458.203-.874.4-1.248.592l-.88.464a3.711 3.711 0 0 1-.336.176 1.6 1.6 0 0 1-.768.208Zm4.683-.48c-.128 0-.272-.016-.432-.048a1.745 1.745 0 0 1-1.12-.88 1.62 1.62 0 0 1-.928.08 1.568 1.568 0 0 1-.848-.512 1.52 1.52 0 0 1-.384-1.152c.021-.448.197-.816.528-1.104.117-.096.245-.208.384-.336a7.77 7.77 0 0 1 .416-.416c.256-.256.523-.517.8-.784a11.208 11.208 0 0 1 1.344-1.072 5.96 5.96 0 0 1 .48-.272c.555-.267 1.099-.341 1.632-.224.608.17 1.029.56 1.264 1.168.149.427.144.875-.016 1.344l-.064.16a2.224 2.224 0 0 1-.08.176c.384.181.661.48.832.896.149.427.133.843-.048 1.248a1.504 1.504 0 0 1-.912.816l-.912.352c-.277.096-.512.176-.704.24-.107.043-.208.08-.304.112a10.89 10.89 0 0 0-.208.08 4.912 4.912 0 0 0-.336.08 1.452 1.452 0 0 1-.384.048Zm13.724.48c-.395 0-.731-.117-1.008-.352a1.542 1.542 0 0 1-.528-.768 1.623 1.623 0 0 1-.017-.928l.017-.032.032-.112c-.587.352-1.12.619-1.6.8-.406.15-.811.133-1.217-.048a1.563 1.563 0 0 1-.832-.896 1.505 1.505 0 0 1 .048-1.232 1.56 1.56 0 0 1 .896-.832c.182-.064.486-.219.913-.464.437-.245 1.029-.667 1.776-1.264.448-.363.816-.677 1.104-.944l.448-.416c.437-.416.949-.55 1.536-.4.437.117.768.373.992.768.17.299.245.603.224.912-.022.31-.08.667-.176 1.072a1.728 1.728 0 0 1-.064.32 6.067 6.067 0 0 0-.096.32c.341-.021.656.053.944.224.298.17.517.416.656.736.181.395.192.8.032 1.216-.16.405-.443.699-.848.88-.459.203-.875.4-1.248.592l-.88.464a4.066 4.066 0 0 1-.336.176 1.6 1.6 0 0 1-.768.208Zm3.738 1.04a3.38 3.38 0 0 1-.336-.016 1.21 1.21 0 0 1-.224-.016 2.214 2.214 0 0 1-.8-.416 1.718 1.718 0 0 1-.528-.672 1.578 1.578 0 0 1-.144-.4 2.523 2.523 0 0 1 .016-.88 17.251 17.251 0 0 1-.304-.208 1.305 1.305 0 0 1-.24-.24c-.256-.341-.384-.704-.384-1.088 0-.256.059-.501.176-.736.107-.235.256-.437.448-.608l.304-.304c.139-.15.267-.299.384-.448l.32-.352.464-.496c.16-.17.31-.325.448-.464.171-.15.32-.277.448-.384a4.05 4.05 0 0 1 .336-.256c.555-.341 1.131-.448 1.728-.32.619.16 1.03.507 1.232 1.04l-.016-.016c.043.096.075.192.096.288.032.085.054.176.064.272.15-.16.283-.31.4-.448.118-.15.224-.283.32-.4l.224-.256a.223.223 0 0 0 .048-.064l.032-.048c.246-.288.534-.49.864-.608.342-.128.683-.15 1.024-.064.235.064.448.181.64.352.203.17.368.368.496.592.15.341.214.635.192.88-.01.235-.026.395-.048.48a.953.953 0 0 1-.048.144 2.21 2.21 0 0 1-.032.144l-.096.304-.016.048c.214.01.427.07.64.176.214.096.39.23.528.4.139.17.24.357.304.56.075.203.112.4.112.592 0 .533-.218.987-.656 1.36l-.08.08c-.224.192-.464.384-.72.576a8.364 8.364 0 0 1-.784.544c-.629.373-1.248.56-1.856.56a2.73 2.73 0 0 1-.768-.112 1.73 1.73 0 0 1-.544-.224 1.995 1.995 0 0 1-.416-.368c-.128.107-.25.208-.368.304-.117.085-.25.176-.4.272h.016a6.58 6.58 0 0 1-.704.432 8.405 8.405 0 0 1-.64.304c-.17.075-.362.128-.576.16a3.686 3.686 0 0 1-.576.048Zm12.932-1.2c-.149 0-.315-.027-.496-.08-.544-.128-.917-.459-1.12-.992-.171-.405-.165-.864.016-1.376.064-.181.16-.395.288-.64a1.92 1.92 0 0 0 .064-.144c.032-.053.064-.101.096-.144-.235.128-.475.267-.72.416-.235.139-.475.272-.72.4-.427.267-.843.512-1.248.736-.405.213-.779.395-1.12.544-.395.181-.8.192-1.216.032a1.501 1.501 0 0 1-.88-.848 1.51 1.51 0 0 1-.032-1.216c.16-.416.443-.71.848-.88.245-.117.549-.272.912-.464a48.96 48.96 0 0 0 1.136-.656c.469-.277.965-.56 1.488-.848a15.643 15.643 0 0 1 1.52-.768 6.439 6.439 0 0 1 1.584-.56c.341-.085.661-.133.96-.144.299-.01.581.021.848.096.587.17.987.533 1.2 1.088.16.395.181.79.064 1.184a5.42 5.42 0 0 1-.432 1.088l.096-.032c.043-.01.08-.021.112-.032.405-.15.805-.128 1.2.064a1.5 1.5 0 0 1 .832.896c.149.416.133.827-.048 1.232a1.504 1.504 0 0 1-.912.816c-.491.17-.949.33-1.376.48-.416.15-.784.277-1.104.384-.437.128-.8.224-1.088.288-.277.053-.528.08-.752.08Zm5.006 1.2a3.35 3.35 0 0 1-.336-.016c-.096 0-.171-.005-.224-.016a2.197 2.197 0 0 1-.8-.416 1.7 1.7 0 0 1-.528-.672 1.504 1.504 0 0 1-.144-.4 2.523 2.523 0 0 1 .016-.88 14.193 14.193 0 0 1-.304-.208 1.244 1.244 0 0 1-.24-.24c-.256-.341-.384-.704-.384-1.088 0-.256.058-.501.176-.736.106-.235.256-.437.448-.608l.304-.304c.138-.15.266-.299.384-.448l.32-.352.464-.496c.16-.17.309-.325.448-.464.17-.15.32-.277.448-.384a4.05 4.05 0 0 1 .336-.256c.554-.341 1.13-.448 1.728-.32.618.16 1.029.507 1.232 1.04l-.016-.016c.042.096.074.192.096.288.032.085.053.176.064.272.149-.16.282-.31.4-.448.117-.15.224-.283.32-.4l.224-.256a.267.267 0 0 0 .048-.064 3.01 3.01 0 0 1 .032-.048c.245-.288.533-.49.864-.608.341-.128.682-.15 1.024-.064.234.064.448.181.64.352.202.17.368.368.496.592.149.341.213.635.192.88a2.966 2.966 0 0 1-.048.48c-.011.043-.027.09-.048.144a5.466 5.466 0 0 1-.032.144l-.096.304-.016.048c.213.01.426.07.64.176.213.096.389.23.528.4.138.17.24.357.304.56.074.203.112.4.112.592 0 .533-.219.987-.656 1.36l-.08.08c-.224.192-.464.384-.72.576a8.635 8.635 0 0 1-.784.544c-.63.373-1.248.56-1.856.56a2.73 2.73 0 0 1-.768-.112 1.72 1.72 0 0 1-.544-.224 1.97 1.97 0 0 1-.416-.368l-.368.304a9.066 9.066 0 0 1-.4.272h.016c-.246.17-.48.315-.704.432a8.59 8.59 0 0 1-.64.304 2.28 2.28 0 0 1-.576.16 3.706 3.706 0 0 1-.576.048Zm10.995-1.04a1.51 1.51 0 0 1-1.008-.352 1.542 1.542 0 0 1-.528-.768 1.623 1.623 0 0 1-.016-.928l.016-.032c.011-.032.022-.07.032-.112a10.1 10.1 0 0 1-1.6.8c-.405.15-.81.133-1.216-.048a1.563 1.563 0 0 1-.832-.896 1.505 1.505 0 0 1 .048-1.232 1.56 1.56 0 0 1 .896-.832c.182-.064.486-.219.912-.464.438-.245 1.03-.667 1.776-1.264.448-.363.816-.677 1.104-.944l.448-.416c.438-.416.95-.55 1.536-.4.438.117.768.373.992.768.171.299.246.603.224.912-.021.31-.08.667-.176 1.072a1.65 1.65 0 0 1-.064.32 6.067 6.067 0 0 0-.096.32c.342-.021.656.053.944.224.299.17.518.416.656.736.182.395.192.8.032 1.216a1.56 1.56 0 0 1-.848.88c-.458.203-.874.4-1.248.592l-.88.464a3.711 3.711 0 0 1-.336.176 1.6 1.6 0 0 1-.768.208Z" fill="#B794F4"/><path d="M239.629 42.074a.497.497 0 0 0 .224-.223l1.987-3.96a.5.5 0 0 1 .894 0l1.986 3.96a.501.501 0 0 0 .224.223l3.969 1.979a.5.5 0 0 1 0 .895l-3.969 1.978a.501.501 0 0 0-.224.223l-1.986 3.96a.5.5 0 0 1-.894 0l-1.987-3.96a.497.497 0 0 0-.224-.223l-3.969-1.979a.5.5 0 0 1 0-.895l3.969-1.978Zm-20.065 10a.497.497 0 0 0 .224-.223l4.495-8.96a.5.5 0 0 1 .894 0l4.494 8.96a.501.501 0 0 0 .224.223l8.986 4.479a.5.5 0 0 1 0 .895l-8.986 4.478a.501.501 0 0 0-.224.223l-4.494 8.96a.5.5 0 0 1-.894 0l-4.495-8.96a.497.497 0 0 0-.224-.223l-8.985-4.479a.5.5 0 0 1 0-.895l8.985-4.478Zm22.276 10.817a.5.5 0 0 1 .894 0l1.986 3.96a.501.501 0 0 0 .224.223l3.969 1.978a.5.5 0 0 1 0 .895l-3.969 1.979a.501.501 0 0 0-.224.223l-1.986 3.96a.5.5 0 0 1-.894 0l-1.987-3.96a.497.497 0 0 0-.224-.223l-3.969-1.978a.5.5 0 0 1 0-.895l3.969-1.979a.497.497 0 0 0 .224-.223l1.987-3.96Z" fill="#A091EE"/></g><defs><filter id="c" x="-10.013" y="20" width="281.863" height="166" filterUnits="userSpaceOnUse" color-interpolation-filters="sRGB"><feFlood flood-opacity="0" result="BackgroundImageFix"/><feColorMatrix in="SourceAlpha" values="0 0 0 0 0 0 0 0 0 0 0 0 0 0 0 0 0 0 127 0" result="hardAlpha"/><feOffset dy="2"/><feGaussianBlur stdDeviation="4"/><feComposite in2="hardAlpha" operator="out"/><feColorMatrix values="0 0 0 0 0 0 0 0 0 0 0 0 0 0 0 0 0 0 0.02 0"/><feBlend in2="BackgroundImageFix" result="effect1_dropShadow_711_17"/><feBlend in="SourceGraphic" in2="effect1_dropShadow_711_17" result="shape"/></filter><filter id="d" x="71" y="48" width="167" height="108" filterUnits="userSpaceOnUse" color-interpolation-filters="sRGB"><feFlood flood-opacity="0" result="BackgroundImageFix"/><feColorMatrix in="SourceAlpha" values="0 0 0 0 0 0 0 0 0 0 0 0 0 0 0 0 0 0 127 0" result="hardAlpha"/><feOffset dy="2"/><feGaussianBlur stdDeviation="4"/><feComposite in2="hardAlpha" operator="out"/><feColorMatrix values="0 0 0 0 0 0 0 0 0 0 0 0 0 0 0 0 0 0 0.05 0"/><feBlend in2="BackgroundImageFix" result="effect1_dropShadow_711_17"/><feBlend in="SourceGraphic" in2="effect1_dropShadow_711_17" result="shape"/></filter><linearGradient id="b" x1="308" y1="0" x2="0" y2="200" gradientUnits="userSpaceOnUse"><stop stop-color="#D6BCFA"/><stop offset="1" stop-color="#DBBBFB"/></linearGradient><clipPath id="a"><path fill="#fff" d="M0 0h308v200H0z"/></clipPath></defs></svg>